<?xml version="1.0" encoding="utf-8" standalone="no"?>
<!DOCTYPE svg PUBLIC "-//W3C//DTD SVG 1.1//EN"
  "http://www.w3.org/Graphics/SVG/1.1/DTD/svg11.dtd">
<svg xmlns:xlink="http://www.w3.org/1999/xlink" width="864pt" height="432pt" viewBox="0 0 864 432" xmlns="http://www.w3.org/2000/svg" version="1.1">
 <metadata>
  <rdf:RDF xmlns:dc="http://purl.org/dc/elements/1.1/" xmlns:cc="http://creativecommons.org/ns#" xmlns:rdf="http://www.w3.org/1999/02/22-rdf-syntax-ns#">
   <cc:Work>
    <dc:type rdf:resource="http://purl.org/dc/dcmitype/StillImage"/>
    <dc:date>2025-03-18T11:29:03.921000</dc:date>
    <dc:format>image/svg+xml</dc:format>
    <dc:creator>
     <cc:Agent>
      <dc:title>Matplotlib v3.9.2, https://matplotlib.org/</dc:title>
     </cc:Agent>
    </dc:creator>
   </cc:Work>
  </rdf:RDF>
 </metadata>
 <defs>
  <style type="text/css">*{stroke-linejoin: round; stroke-linecap: butt}</style>
 </defs>
 <g id="figure_1">
  <g id="patch_1">
   <path d="M 0 432 
L 864 432 
L 864 0 
L 0 0 
z
" style="fill: #ffffff"/>
  </g>
  <g id="axes_1">
   <g id="patch_2">
    <path d="M 108 384.48 
L 777.6 384.48 
L 777.6 51.84 
L 108 51.84 
z
" style="fill: #eaeaf2"/>
   </g>
   <g id="matplotlib.axis_1">
    <g id="xtick_1">
     <g id="line2d_1">
      <path d="M 108 384.48 
L 108 51.84 
" clip-path="url(#p50790c95e4)" style="fill: none; stroke: #ffffff; stroke-width: 0.8; stroke-linecap: round"/>
     </g>
    </g>
    <g id="xtick_2">
     <g id="line2d_2">
      <path d="M 165.99685 384.48 
L 165.99685 51.84 
" clip-path="url(#p50790c95e4)" style="fill: none; stroke: #ffffff; stroke-width: 0.8; stroke-linecap: round"/>
     </g>
     <g id="text_1">
      <!-- Jan -->
      <g style="fill: #262626" transform="translate(154.711538 401.500938) scale(0.14 -0.14)">
       <defs>
        <path id="ArialMT-4a" d="M 184 1300 
L 731 1375 
Q 753 850 928 656 
Q 1103 463 1413 463 
Q 1641 463 1806 567 
Q 1972 672 2034 851 
Q 2097 1031 2097 1425 
L 2097 4581 
L 2703 4581 
L 2703 1459 
Q 2703 884 2564 568 
Q 2425 253 2123 87 
Q 1822 -78 1416 -78 
Q 813 -78 492 269 
Q 172 616 184 1300 
z
" transform="scale(0.015625)"/>
        <path id="ArialMT-61" d="M 2588 409 
Q 2275 144 1986 34 
Q 1697 -75 1366 -75 
Q 819 -75 525 192 
Q 231 459 231 875 
Q 231 1119 342 1320 
Q 453 1522 633 1644 
Q 813 1766 1038 1828 
Q 1203 1872 1538 1913 
Q 2219 1994 2541 2106 
Q 2544 2222 2544 2253 
Q 2544 2597 2384 2738 
Q 2169 2928 1744 2928 
Q 1347 2928 1158 2789 
Q 969 2650 878 2297 
L 328 2372 
Q 403 2725 575 2942 
Q 747 3159 1072 3276 
Q 1397 3394 1825 3394 
Q 2250 3394 2515 3294 
Q 2781 3194 2906 3042 
Q 3031 2891 3081 2659 
Q 3109 2516 3109 2141 
L 3109 1391 
Q 3109 606 3145 398 
Q 3181 191 3288 0 
L 2700 0 
Q 2613 175 2588 409 
z
M 2541 1666 
Q 2234 1541 1622 1453 
Q 1275 1403 1131 1340 
Q 988 1278 909 1158 
Q 831 1038 831 891 
Q 831 666 1001 516 
Q 1172 366 1500 366 
Q 1825 366 2078 508 
Q 2331 650 2450 897 
Q 2541 1088 2541 1459 
L 2541 1666 
z
" transform="scale(0.015625)"/>
        <path id="ArialMT-6e" d="M 422 0 
L 422 3319 
L 928 3319 
L 928 2847 
Q 1294 3394 1984 3394 
Q 2284 3394 2536 3286 
Q 2788 3178 2913 3003 
Q 3038 2828 3088 2588 
Q 3119 2431 3119 2041 
L 3119 0 
L 2556 0 
L 2556 2019 
Q 2556 2363 2490 2533 
Q 2425 2703 2258 2804 
Q 2091 2906 1866 2906 
Q 1506 2906 1245 2678 
Q 984 2450 984 1813 
L 984 0 
L 422 0 
z
" transform="scale(0.015625)"/>
       </defs>
       <use xlink:href="#ArialMT-4a"/>
       <use xlink:href="#ArialMT-61" x="50"/>
       <use xlink:href="#ArialMT-6e" x="105.615234"/>
      </g>
      <!-- 2022 -->
      <g style="fill: #262626" transform="translate(150.426225 416.308562) scale(0.14 -0.14)">
       <defs>
        <path id="ArialMT-32" d="M 3222 541 
L 3222 0 
L 194 0 
Q 188 203 259 391 
Q 375 700 629 1000 
Q 884 1300 1366 1694 
Q 2113 2306 2375 2664 
Q 2638 3022 2638 3341 
Q 2638 3675 2398 3904 
Q 2159 4134 1775 4134 
Q 1369 4134 1125 3890 
Q 881 3647 878 3216 
L 300 3275 
Q 359 3922 746 4261 
Q 1134 4600 1788 4600 
Q 2447 4600 2831 4234 
Q 3216 3869 3216 3328 
Q 3216 3053 3103 2787 
Q 2991 2522 2730 2228 
Q 2469 1934 1863 1422 
Q 1356 997 1212 845 
Q 1069 694 975 541 
L 3222 541 
z
" transform="scale(0.015625)"/>
        <path id="ArialMT-30" d="M 266 2259 
Q 266 3072 433 3567 
Q 600 4063 929 4331 
Q 1259 4600 1759 4600 
Q 2128 4600 2406 4451 
Q 2684 4303 2865 4023 
Q 3047 3744 3150 3342 
Q 3253 2941 3253 2259 
Q 3253 1453 3087 958 
Q 2922 463 2592 192 
Q 2263 -78 1759 -78 
Q 1097 -78 719 397 
Q 266 969 266 2259 
z
M 844 2259 
Q 844 1131 1108 757 
Q 1372 384 1759 384 
Q 2147 384 2411 759 
Q 2675 1134 2675 2259 
Q 2675 3391 2411 3762 
Q 2147 4134 1753 4134 
Q 1366 4134 1134 3806 
Q 844 3388 844 2259 
z
" transform="scale(0.015625)"/>
       </defs>
       <use xlink:href="#ArialMT-32"/>
       <use xlink:href="#ArialMT-30" x="55.615234"/>
       <use xlink:href="#ArialMT-32" x="111.230469"/>
       <use xlink:href="#ArialMT-32" x="166.845703"/>
      </g>
     </g>
    </g>
    <g id="xtick_3">
     <g id="line2d_3">
      <path d="M 358.440945 384.48 
L 358.440945 51.84 
" clip-path="url(#p50790c95e4)" style="fill: none; stroke: #ffffff; stroke-width: 0.8; stroke-linecap: round"/>
     </g>
     <g id="text_2">
      <!-- Jan -->
      <g style="fill: #262626" transform="translate(347.155632 401.500938) scale(0.14 -0.14)">
       <use xlink:href="#ArialMT-4a"/>
       <use xlink:href="#ArialMT-61" x="50"/>
       <use xlink:href="#ArialMT-6e" x="105.615234"/>
      </g>
      <!-- 2023 -->
      <g style="fill: #262626" transform="translate(342.87032 416.308562) scale(0.14 -0.14)">
       <defs>
        <path id="ArialMT-33" d="M 269 1209 
L 831 1284 
Q 928 806 1161 595 
Q 1394 384 1728 384 
Q 2125 384 2398 659 
Q 2672 934 2672 1341 
Q 2672 1728 2419 1979 
Q 2166 2231 1775 2231 
Q 1616 2231 1378 2169 
L 1441 2663 
Q 1497 2656 1531 2656 
Q 1891 2656 2178 2843 
Q 2466 3031 2466 3422 
Q 2466 3731 2256 3934 
Q 2047 4138 1716 4138 
Q 1388 4138 1169 3931 
Q 950 3725 888 3313 
L 325 3413 
Q 428 3978 793 4289 
Q 1159 4600 1703 4600 
Q 2078 4600 2393 4439 
Q 2709 4278 2876 4000 
Q 3044 3722 3044 3409 
Q 3044 3113 2884 2869 
Q 2725 2625 2413 2481 
Q 2819 2388 3044 2092 
Q 3269 1797 3269 1353 
Q 3269 753 2831 336 
Q 2394 -81 1725 -81 
Q 1122 -81 723 278 
Q 325 638 269 1209 
z
" transform="scale(0.015625)"/>
       </defs>
       <use xlink:href="#ArialMT-32"/>
       <use xlink:href="#ArialMT-30" x="55.615234"/>
       <use xlink:href="#ArialMT-32" x="111.230469"/>
       <use xlink:href="#ArialMT-33" x="166.845703"/>
      </g>
     </g>
    </g>
    <g id="xtick_4">
     <g id="line2d_4">
      <path d="M 550.885039 384.48 
L 550.885039 51.84 
" clip-path="url(#p50790c95e4)" style="fill: none; stroke: #ffffff; stroke-width: 0.8; stroke-linecap: round"/>
     </g>
     <g id="text_3">
      <!-- Jan -->
      <g style="fill: #262626" transform="translate(539.599727 401.500938) scale(0.14 -0.14)">
       <use xlink:href="#ArialMT-4a"/>
       <use xlink:href="#ArialMT-61" x="50"/>
       <use xlink:href="#ArialMT-6e" x="105.615234"/>
      </g>
      <!-- 2024 -->
      <g style="fill: #262626" transform="translate(535.314414 416.308562) scale(0.14 -0.14)">
       <defs>
        <path id="ArialMT-34" d="M 2069 0 
L 2069 1097 
L 81 1097 
L 81 1613 
L 2172 4581 
L 2631 4581 
L 2631 1613 
L 3250 1613 
L 3250 1097 
L 2631 1097 
L 2631 0 
L 2069 0 
z
M 2069 1613 
L 2069 3678 
L 634 1613 
L 2069 1613 
z
" transform="scale(0.015625)"/>
       </defs>
       <use xlink:href="#ArialMT-32"/>
       <use xlink:href="#ArialMT-30" x="55.615234"/>
       <use xlink:href="#ArialMT-32" x="111.230469"/>
       <use xlink:href="#ArialMT-34" x="166.845703"/>
      </g>
     </g>
    </g>
    <g id="xtick_5">
     <g id="line2d_5">
      <path d="M 743.856378 384.48 
L 743.856378 51.84 
" clip-path="url(#p50790c95e4)" style="fill: none; stroke: #ffffff; stroke-width: 0.8; stroke-linecap: round"/>
     </g>
     <g id="text_4">
      <!-- Jan -->
      <g style="fill: #262626" transform="translate(732.571065 401.500938) scale(0.14 -0.14)">
       <use xlink:href="#ArialMT-4a"/>
       <use xlink:href="#ArialMT-61" x="50"/>
       <use xlink:href="#ArialMT-6e" x="105.615234"/>
      </g>
      <!-- 2025 -->
      <g style="fill: #262626" transform="translate(728.285753 416.308562) scale(0.14 -0.14)">
       <defs>
        <path id="ArialMT-35" d="M 266 1200 
L 856 1250 
Q 922 819 1161 601 
Q 1400 384 1738 384 
Q 2144 384 2425 690 
Q 2706 997 2706 1503 
Q 2706 1984 2436 2262 
Q 2166 2541 1728 2541 
Q 1456 2541 1237 2417 
Q 1019 2294 894 2097 
L 366 2166 
L 809 4519 
L 3088 4519 
L 3088 3981 
L 1259 3981 
L 1013 2750 
Q 1425 3038 1878 3038 
Q 2478 3038 2890 2622 
Q 3303 2206 3303 1553 
Q 3303 931 2941 478 
Q 2500 -78 1738 -78 
Q 1113 -78 717 272 
Q 322 622 266 1200 
z
" transform="scale(0.015625)"/>
       </defs>
       <use xlink:href="#ArialMT-32"/>
       <use xlink:href="#ArialMT-30" x="55.615234"/>
       <use xlink:href="#ArialMT-32" x="111.230469"/>
       <use xlink:href="#ArialMT-35" x="166.845703"/>
      </g>
     </g>
    </g>
    <g id="xtick_6">
     <g id="line2d_6">
      <path d="M 777.6 384.48 
L 777.6 51.84 
" clip-path="url(#p50790c95e4)" style="fill: none; stroke: #ffffff; stroke-width: 0.8; stroke-linecap: round"/>
     </g>
    </g>
    <g id="xtick_7"/>
    <g id="xtick_8"/>
    <g id="xtick_9"/>
    <g id="xtick_10"/>
    <g id="xtick_11"/>
    <g id="xtick_12"/>
    <g id="xtick_13"/>
    <g id="xtick_14"/>
    <g id="xtick_15">
     <g id="text_5">
      <!-- Jul -->
      <g style="fill: #262626" transform="translate(252.480063 399.900937) scale(0.14 -0.14)">
       <defs>
        <path id="ArialMT-75" d="M 2597 0 
L 2597 488 
Q 2209 -75 1544 -75 
Q 1250 -75 995 37 
Q 741 150 617 320 
Q 494 491 444 738 
Q 409 903 409 1263 
L 409 3319 
L 972 3319 
L 972 1478 
Q 972 1038 1006 884 
Q 1059 663 1231 536 
Q 1403 409 1656 409 
Q 1909 409 2131 539 
Q 2353 669 2445 892 
Q 2538 1116 2538 1541 
L 2538 3319 
L 3100 3319 
L 3100 0 
L 2597 0 
z
" transform="scale(0.015625)"/>
        <path id="ArialMT-6c" d="M 409 0 
L 409 4581 
L 972 4581 
L 972 0 
L 409 0 
z
" transform="scale(0.015625)"/>
       </defs>
       <use xlink:href="#ArialMT-4a"/>
       <use xlink:href="#ArialMT-75" x="50"/>
       <use xlink:href="#ArialMT-6c" x="105.615234"/>
      </g>
     </g>
    </g>
    <g id="xtick_16"/>
    <g id="xtick_17"/>
    <g id="xtick_18"/>
    <g id="xtick_19"/>
    <g id="xtick_20"/>
    <g id="xtick_21"/>
    <g id="xtick_22"/>
    <g id="xtick_23"/>
    <g id="xtick_24"/>
    <g id="xtick_25"/>
    <g id="xtick_26">
     <g id="text_6">
      <!-- Jul -->
      <g style="fill: #262626" transform="translate(444.924157 399.900937) scale(0.14 -0.14)">
       <use xlink:href="#ArialMT-4a"/>
       <use xlink:href="#ArialMT-75" x="50"/>
       <use xlink:href="#ArialMT-6c" x="105.615234"/>
      </g>
     </g>
    </g>
    <g id="xtick_27"/>
    <g id="xtick_28"/>
    <g id="xtick_29"/>
    <g id="xtick_30"/>
    <g id="xtick_31"/>
    <g id="xtick_32"/>
    <g id="xtick_33"/>
    <g id="xtick_34"/>
    <g id="xtick_35"/>
    <g id="xtick_36"/>
    <g id="xtick_37">
     <g id="text_7">
      <!-- Jul -->
      <g style="fill: #262626" transform="translate(637.895496 399.900937) scale(0.14 -0.14)">
       <use xlink:href="#ArialMT-4a"/>
       <use xlink:href="#ArialMT-75" x="50"/>
       <use xlink:href="#ArialMT-6c" x="105.615234"/>
      </g>
     </g>
    </g>
    <g id="xtick_38"/>
    <g id="xtick_39"/>
    <g id="xtick_40"/>
    <g id="xtick_41"/>
    <g id="xtick_42"/>
    <g id="xtick_43"/>
    <g id="xtick_44"/>
    <g id="text_8">
     <!-- Date -->
     <g style="fill: #262626" transform="translate(428.014688 433.112) scale(0.14 -0.14)">
      <defs>
       <path id="ArialMT-44" d="M 494 0 
L 494 4581 
L 2072 4581 
Q 2606 4581 2888 4516 
Q 3281 4425 3559 4188 
Q 3922 3881 4101 3404 
Q 4281 2928 4281 2316 
Q 4281 1794 4159 1391 
Q 4038 988 3847 723 
Q 3656 459 3429 307 
Q 3203 156 2883 78 
Q 2563 0 2147 0 
L 494 0 
z
M 1100 541 
L 2078 541 
Q 2531 541 2789 625 
Q 3047 709 3200 863 
Q 3416 1078 3536 1442 
Q 3656 1806 3656 2325 
Q 3656 3044 3420 3430 
Q 3184 3816 2847 3947 
Q 2603 4041 2063 4041 
L 1100 4041 
L 1100 541 
z
" transform="scale(0.015625)"/>
       <path id="ArialMT-74" d="M 1650 503 
L 1731 6 
Q 1494 -44 1306 -44 
Q 1000 -44 831 53 
Q 663 150 594 308 
Q 525 466 525 972 
L 525 2881 
L 113 2881 
L 113 3319 
L 525 3319 
L 525 4141 
L 1084 4478 
L 1084 3319 
L 1650 3319 
L 1650 2881 
L 1084 2881 
L 1084 941 
Q 1084 700 1114 631 
Q 1144 563 1211 522 
Q 1278 481 1403 481 
Q 1497 481 1650 503 
z
" transform="scale(0.015625)"/>
       <path id="ArialMT-65" d="M 2694 1069 
L 3275 997 
Q 3138 488 2766 206 
Q 2394 -75 1816 -75 
Q 1088 -75 661 373 
Q 234 822 234 1631 
Q 234 2469 665 2931 
Q 1097 3394 1784 3394 
Q 2450 3394 2872 2941 
Q 3294 2488 3294 1666 
Q 3294 1616 3291 1516 
L 816 1516 
Q 847 969 1125 678 
Q 1403 388 1819 388 
Q 2128 388 2347 550 
Q 2566 713 2694 1069 
z
M 847 1978 
L 2700 1978 
Q 2663 2397 2488 2606 
Q 2219 2931 1791 2931 
Q 1403 2931 1139 2672 
Q 875 2413 847 1978 
z
" transform="scale(0.015625)"/>
      </defs>
      <use xlink:href="#ArialMT-44"/>
      <use xlink:href="#ArialMT-61" x="72.216797"/>
      <use xlink:href="#ArialMT-74" x="127.832031"/>
      <use xlink:href="#ArialMT-65" x="155.615234"/>
     </g>
    </g>
   </g>
   <g id="matplotlib.axis_2">
    <g id="ytick_1">
     <g id="line2d_7">
      <path d="M 108 369.36 
L 777.6 369.36 
" clip-path="url(#p50790c95e4)" style="fill: none; stroke: #ffffff; stroke-width: 0.8; stroke-linecap: round"/>
     </g>
     <g id="text_9">
      <!-- −1.00 -->
      <g style="fill: #262626" transform="translate(65.577812 374.370469) scale(0.14 -0.14)">
       <defs>
        <path id="ArialMT-2212" d="M 3381 1997 
L 356 1997 
L 356 2522 
L 3381 2522 
L 3381 1997 
z
" transform="scale(0.015625)"/>
        <path id="ArialMT-31" d="M 2384 0 
L 1822 0 
L 1822 3584 
Q 1619 3391 1289 3197 
Q 959 3003 697 2906 
L 697 3450 
Q 1169 3672 1522 3987 
Q 1875 4303 2022 4600 
L 2384 4600 
L 2384 0 
z
" transform="scale(0.015625)"/>
        <path id="ArialMT-2e" d="M 581 0 
L 581 641 
L 1222 641 
L 1222 0 
L 581 0 
z
" transform="scale(0.015625)"/>
       </defs>
       <use xlink:href="#ArialMT-2212"/>
       <use xlink:href="#ArialMT-31" x="58.398438"/>
       <use xlink:href="#ArialMT-2e" x="114.013672"/>
       <use xlink:href="#ArialMT-30" x="141.796875"/>
       <use xlink:href="#ArialMT-30" x="197.412109"/>
      </g>
     </g>
    </g>
    <g id="ytick_2">
     <g id="line2d_8">
      <path d="M 108 331.56 
L 777.6 331.56 
" clip-path="url(#p50790c95e4)" style="fill: none; stroke: #ffffff; stroke-width: 0.8; stroke-linecap: round"/>
     </g>
     <g id="text_10">
      <!-- −0.75 -->
      <g style="fill: #262626" transform="translate(65.577812 336.570469) scale(0.14 -0.14)">
       <defs>
        <path id="ArialMT-37" d="M 303 3981 
L 303 4522 
L 3269 4522 
L 3269 4084 
Q 2831 3619 2401 2847 
Q 1972 2075 1738 1259 
Q 1569 684 1522 0 
L 944 0 
Q 953 541 1156 1306 
Q 1359 2072 1739 2783 
Q 2119 3494 2547 3981 
L 303 3981 
z
" transform="scale(0.015625)"/>
       </defs>
       <use xlink:href="#ArialMT-2212"/>
       <use xlink:href="#ArialMT-30" x="58.398438"/>
       <use xlink:href="#ArialMT-2e" x="114.013672"/>
       <use xlink:href="#ArialMT-37" x="141.796875"/>
       <use xlink:href="#ArialMT-35" x="197.412109"/>
      </g>
     </g>
    </g>
    <g id="ytick_3">
     <g id="line2d_9">
      <path d="M 108 293.76 
L 777.6 293.76 
" clip-path="url(#p50790c95e4)" style="fill: none; stroke: #ffffff; stroke-width: 0.8; stroke-linecap: round"/>
     </g>
     <g id="text_11">
      <!-- −0.50 -->
      <g style="fill: #262626" transform="translate(65.577812 298.770469) scale(0.14 -0.14)">
       <use xlink:href="#ArialMT-2212"/>
       <use xlink:href="#ArialMT-30" x="58.398438"/>
       <use xlink:href="#ArialMT-2e" x="114.013672"/>
       <use xlink:href="#ArialMT-35" x="141.796875"/>
       <use xlink:href="#ArialMT-30" x="197.412109"/>
      </g>
     </g>
    </g>
    <g id="ytick_4">
     <g id="line2d_10">
      <path d="M 108 255.96 
L 777.6 255.96 
" clip-path="url(#p50790c95e4)" style="fill: none; stroke: #ffffff; stroke-width: 0.8; stroke-linecap: round"/>
     </g>
     <g id="text_12">
      <!-- −0.25 -->
      <g style="fill: #262626" transform="translate(65.577812 260.970469) scale(0.14 -0.14)">
       <use xlink:href="#ArialMT-2212"/>
       <use xlink:href="#ArialMT-30" x="58.398438"/>
       <use xlink:href="#ArialMT-2e" x="114.013672"/>
       <use xlink:href="#ArialMT-32" x="141.796875"/>
       <use xlink:href="#ArialMT-35" x="197.412109"/>
      </g>
     </g>
    </g>
    <g id="ytick_5">
     <g id="line2d_11">
      <path d="M 108 218.16 
L 777.6 218.16 
" clip-path="url(#p50790c95e4)" style="fill: none; stroke: #ffffff; stroke-width: 0.8; stroke-linecap: round"/>
     </g>
     <g id="text_13">
      <!-- 0.00 -->
      <g style="fill: #262626" transform="translate(73.754687 223.170469) scale(0.14 -0.14)">
       <use xlink:href="#ArialMT-30"/>
       <use xlink:href="#ArialMT-2e" x="55.615234"/>
       <use xlink:href="#ArialMT-30" x="83.398438"/>
       <use xlink:href="#ArialMT-30" x="139.013672"/>
      </g>
     </g>
    </g>
    <g id="ytick_6">
     <g id="line2d_12">
      <path d="M 108 180.36 
L 777.6 180.36 
" clip-path="url(#p50790c95e4)" style="fill: none; stroke: #ffffff; stroke-width: 0.8; stroke-linecap: round"/>
     </g>
     <g id="text_14">
      <!-- 0.25 -->
      <g style="fill: #262626" transform="translate(73.754687 185.370469) scale(0.14 -0.14)">
       <use xlink:href="#ArialMT-30"/>
       <use xlink:href="#ArialMT-2e" x="55.615234"/>
       <use xlink:href="#ArialMT-32" x="83.398438"/>
       <use xlink:href="#ArialMT-35" x="139.013672"/>
      </g>
     </g>
    </g>
    <g id="ytick_7">
     <g id="line2d_13">
      <path d="M 108 142.56 
L 777.6 142.56 
" clip-path="url(#p50790c95e4)" style="fill: none; stroke: #ffffff; stroke-width: 0.8; stroke-linecap: round"/>
     </g>
     <g id="text_15">
      <!-- 0.50 -->
      <g style="fill: #262626" transform="translate(73.754687 147.570469) scale(0.14 -0.14)">
       <use xlink:href="#ArialMT-30"/>
       <use xlink:href="#ArialMT-2e" x="55.615234"/>
       <use xlink:href="#ArialMT-35" x="83.398438"/>
       <use xlink:href="#ArialMT-30" x="139.013672"/>
      </g>
     </g>
    </g>
    <g id="ytick_8">
     <g id="line2d_14">
      <path d="M 108 104.76 
L 777.6 104.76 
" clip-path="url(#p50790c95e4)" style="fill: none; stroke: #ffffff; stroke-width: 0.8; stroke-linecap: round"/>
     </g>
     <g id="text_16">
      <!-- 0.75 -->
      <g style="fill: #262626" transform="translate(73.754687 109.770469) scale(0.14 -0.14)">
       <use xlink:href="#ArialMT-30"/>
       <use xlink:href="#ArialMT-2e" x="55.615234"/>
       <use xlink:href="#ArialMT-37" x="83.398438"/>
       <use xlink:href="#ArialMT-35" x="139.013672"/>
      </g>
     </g>
    </g>
    <g id="ytick_9">
     <g id="line2d_15">
      <path d="M 108 66.96 
L 777.6 66.96 
" clip-path="url(#p50790c95e4)" style="fill: none; stroke: #ffffff; stroke-width: 0.8; stroke-linecap: round"/>
     </g>
     <g id="text_17">
      <!-- 1.00 -->
      <g style="fill: #262626" transform="translate(73.754687 71.970469) scale(0.14 -0.14)">
       <use xlink:href="#ArialMT-31"/>
       <use xlink:href="#ArialMT-2e" x="55.615234"/>
       <use xlink:href="#ArialMT-30" x="83.398438"/>
       <use xlink:href="#ArialMT-30" x="139.013672"/>
      </g>
     </g>
    </g>
    <g id="text_18">
     <!-- Average Sentiment Polarity -->
     <g style="fill: #262626" transform="translate(58.63125 302.853437) rotate(-90) scale(0.14 -0.14)">
      <defs>
       <path id="ArialMT-41" d="M -9 0 
L 1750 4581 
L 2403 4581 
L 4278 0 
L 3588 0 
L 3053 1388 
L 1138 1388 
L 634 0 
L -9 0 
z
M 1313 1881 
L 2866 1881 
L 2388 3150 
Q 2169 3728 2063 4100 
Q 1975 3659 1816 3225 
L 1313 1881 
z
" transform="scale(0.015625)"/>
       <path id="ArialMT-76" d="M 1344 0 
L 81 3319 
L 675 3319 
L 1388 1331 
Q 1503 1009 1600 663 
Q 1675 925 1809 1294 
L 2547 3319 
L 3125 3319 
L 1869 0 
L 1344 0 
z
" transform="scale(0.015625)"/>
       <path id="ArialMT-72" d="M 416 0 
L 416 3319 
L 922 3319 
L 922 2816 
Q 1116 3169 1280 3281 
Q 1444 3394 1641 3394 
Q 1925 3394 2219 3213 
L 2025 2691 
Q 1819 2813 1613 2813 
Q 1428 2813 1281 2702 
Q 1134 2591 1072 2394 
Q 978 2094 978 1738 
L 978 0 
L 416 0 
z
" transform="scale(0.015625)"/>
       <path id="ArialMT-67" d="M 319 -275 
L 866 -356 
Q 900 -609 1056 -725 
Q 1266 -881 1628 -881 
Q 2019 -881 2231 -725 
Q 2444 -569 2519 -288 
Q 2563 -116 2559 434 
Q 2191 0 1641 0 
Q 956 0 581 494 
Q 206 988 206 1678 
Q 206 2153 378 2554 
Q 550 2956 876 3175 
Q 1203 3394 1644 3394 
Q 2231 3394 2613 2919 
L 2613 3319 
L 3131 3319 
L 3131 450 
Q 3131 -325 2973 -648 
Q 2816 -972 2473 -1159 
Q 2131 -1347 1631 -1347 
Q 1038 -1347 672 -1080 
Q 306 -813 319 -275 
z
M 784 1719 
Q 784 1066 1043 766 
Q 1303 466 1694 466 
Q 2081 466 2343 764 
Q 2606 1063 2606 1700 
Q 2606 2309 2336 2618 
Q 2066 2928 1684 2928 
Q 1309 2928 1046 2623 
Q 784 2319 784 1719 
z
" transform="scale(0.015625)"/>
       <path id="ArialMT-20" transform="scale(0.015625)"/>
       <path id="ArialMT-53" d="M 288 1472 
L 859 1522 
Q 900 1178 1048 958 
Q 1197 738 1509 602 
Q 1822 466 2213 466 
Q 2559 466 2825 569 
Q 3091 672 3220 851 
Q 3350 1031 3350 1244 
Q 3350 1459 3225 1620 
Q 3100 1781 2813 1891 
Q 2628 1963 1997 2114 
Q 1366 2266 1113 2400 
Q 784 2572 623 2826 
Q 463 3081 463 3397 
Q 463 3744 659 4045 
Q 856 4347 1234 4503 
Q 1613 4659 2075 4659 
Q 2584 4659 2973 4495 
Q 3363 4331 3572 4012 
Q 3781 3694 3797 3291 
L 3216 3247 
Q 3169 3681 2898 3903 
Q 2628 4125 2100 4125 
Q 1550 4125 1298 3923 
Q 1047 3722 1047 3438 
Q 1047 3191 1225 3031 
Q 1400 2872 2139 2705 
Q 2878 2538 3153 2413 
Q 3553 2228 3743 1945 
Q 3934 1663 3934 1294 
Q 3934 928 3725 604 
Q 3516 281 3123 101 
Q 2731 -78 2241 -78 
Q 1619 -78 1198 103 
Q 778 284 539 648 
Q 300 1013 288 1472 
z
" transform="scale(0.015625)"/>
       <path id="ArialMT-69" d="M 425 3934 
L 425 4581 
L 988 4581 
L 988 3934 
L 425 3934 
z
M 425 0 
L 425 3319 
L 988 3319 
L 988 0 
L 425 0 
z
" transform="scale(0.015625)"/>
       <path id="ArialMT-6d" d="M 422 0 
L 422 3319 
L 925 3319 
L 925 2853 
Q 1081 3097 1340 3245 
Q 1600 3394 1931 3394 
Q 2300 3394 2536 3241 
Q 2772 3088 2869 2813 
Q 3263 3394 3894 3394 
Q 4388 3394 4653 3120 
Q 4919 2847 4919 2278 
L 4919 0 
L 4359 0 
L 4359 2091 
Q 4359 2428 4304 2576 
Q 4250 2725 4106 2815 
Q 3963 2906 3769 2906 
Q 3419 2906 3187 2673 
Q 2956 2441 2956 1928 
L 2956 0 
L 2394 0 
L 2394 2156 
Q 2394 2531 2256 2718 
Q 2119 2906 1806 2906 
Q 1569 2906 1367 2781 
Q 1166 2656 1075 2415 
Q 984 2175 984 1722 
L 984 0 
L 422 0 
z
" transform="scale(0.015625)"/>
       <path id="ArialMT-50" d="M 494 0 
L 494 4581 
L 2222 4581 
Q 2678 4581 2919 4538 
Q 3256 4481 3484 4323 
Q 3713 4166 3852 3881 
Q 3991 3597 3991 3256 
Q 3991 2672 3619 2267 
Q 3247 1863 2275 1863 
L 1100 1863 
L 1100 0 
L 494 0 
z
M 1100 2403 
L 2284 2403 
Q 2872 2403 3119 2622 
Q 3366 2841 3366 3238 
Q 3366 3525 3220 3729 
Q 3075 3934 2838 4000 
Q 2684 4041 2272 4041 
L 1100 4041 
L 1100 2403 
z
" transform="scale(0.015625)"/>
       <path id="ArialMT-6f" d="M 213 1659 
Q 213 2581 725 3025 
Q 1153 3394 1769 3394 
Q 2453 3394 2887 2945 
Q 3322 2497 3322 1706 
Q 3322 1066 3130 698 
Q 2938 331 2570 128 
Q 2203 -75 1769 -75 
Q 1072 -75 642 372 
Q 213 819 213 1659 
z
M 791 1659 
Q 791 1022 1069 705 
Q 1347 388 1769 388 
Q 2188 388 2466 706 
Q 2744 1025 2744 1678 
Q 2744 2294 2464 2611 
Q 2184 2928 1769 2928 
Q 1347 2928 1069 2612 
Q 791 2297 791 1659 
z
" transform="scale(0.015625)"/>
       <path id="ArialMT-79" d="M 397 -1278 
L 334 -750 
Q 519 -800 656 -800 
Q 844 -800 956 -737 
Q 1069 -675 1141 -563 
Q 1194 -478 1313 -144 
Q 1328 -97 1363 -6 
L 103 3319 
L 709 3319 
L 1400 1397 
Q 1534 1031 1641 628 
Q 1738 1016 1872 1384 
L 2581 3319 
L 3144 3319 
L 1881 -56 
Q 1678 -603 1566 -809 
Q 1416 -1088 1222 -1217 
Q 1028 -1347 759 -1347 
Q 597 -1347 397 -1278 
z
" transform="scale(0.015625)"/>
      </defs>
      <use xlink:href="#ArialMT-41"/>
      <use xlink:href="#ArialMT-76" x="64.949219"/>
      <use xlink:href="#ArialMT-65" x="114.949219"/>
      <use xlink:href="#ArialMT-72" x="170.564453"/>
      <use xlink:href="#ArialMT-61" x="203.865234"/>
      <use xlink:href="#ArialMT-67" x="259.480469"/>
      <use xlink:href="#ArialMT-65" x="315.095703"/>
      <use xlink:href="#ArialMT-20" x="370.710938"/>
      <use xlink:href="#ArialMT-53" x="398.494141"/>
      <use xlink:href="#ArialMT-65" x="465.193359"/>
      <use xlink:href="#ArialMT-6e" x="520.808594"/>
      <use xlink:href="#ArialMT-74" x="576.423828"/>
      <use xlink:href="#ArialMT-69" x="604.207031"/>
      <use xlink:href="#ArialMT-6d" x="626.423828"/>
      <use xlink:href="#ArialMT-65" x="709.724609"/>
      <use xlink:href="#ArialMT-6e" x="765.339844"/>
      <use xlink:href="#ArialMT-74" x="820.955078"/>
      <use xlink:href="#ArialMT-20" x="848.738281"/>
      <use xlink:href="#ArialMT-50" x="876.521484"/>
      <use xlink:href="#ArialMT-6f" x="943.220703"/>
      <use xlink:href="#ArialMT-6c" x="998.835938"/>
      <use xlink:href="#ArialMT-61" x="1021.052734"/>
      <use xlink:href="#ArialMT-72" x="1076.667969"/>
      <use xlink:href="#ArialMT-69" x="1109.96875"/>
      <use xlink:href="#ArialMT-74" x="1132.185547"/>
      <use xlink:href="#ArialMT-79" x="1159.96875"/>
     </g>
    </g>
   </g>
   <g id="line2d_16">
    <path d="M 377.421732 176.923636 
L 377.948976 180.36 
L 378.47622 218.16 
L 379.003465 221.31 
L 379.530709 201.36 
L 380.057953 234.075789 
L 380.585197 200.221017 
L 381.112441 217.138378 
L 381.639685 207.36 
L 382.166929 209.265882 
L 382.694173 213.578182 
L 383.221417 208.71 
L 383.748661 218.16 
L 384.275906 190.669091 
L 384.80315 222.607059 
L 385.330394 202.244211 
L 385.857638 211.287273 
L 386.384882 218.16 
L 386.912126 196.56 
L 387.966614 218.16 
L 388.493858 192.96 
L 389.021102 218.16 
L 389.548346 196.56 
L 390.075591 206.529231 
L 390.602835 205.56 
L 391.130079 218.16 
L 391.657323 218.16 
L 392.184567 210.366186 
L 392.711811 209.987027 
L 393.239055 186.087273 
L 393.766299 211.287273 
L 394.293543 221.411613 
M 395.348031 230.76 
L 395.875276 194.898462 
L 396.40252 218.16 
L 396.929764 188.235 
L 397.457008 214.723636 
L 397.984252 293.76 
L 398.511496 204.414545 
L 399.03874 208.71 
L 399.565984 228.107368 
L 400.093228 189.554595 
L 400.620472 208.71 
L 401.147717 208.996364 
L 401.674961 218.16 
L 402.202205 218.16 
L 402.729449 167.76 
L 403.256693 225.72 
L 403.783937 197.304828 
L 404.311181 212.112 
L 404.838425 212.946207 
L 405.365669 218.16 
L 405.892913 196.56 
L 406.420157 218.16 
L 406.947402 167.76 
L 408.00189 218.16 
L 408.529134 211.586087 
M 410.63811 218.16 
L 411.165354 218.16 
L 411.692598 194.286316 
L 412.219843 206.529231 
L 412.747087 192.96 
M 414.328819 218.16 
L 414.856063 66.96 
M 419.60126 218.16 
L 420.655748 142.56 
M 422.23748 218.16 
L 424.346457 218.16 
M 426.455433 205.012174 
L 426.982677 218.16 
L 427.509921 218.16 
L 428.037165 203.04 
M 429.091654 202.244211 
L 429.618898 218.16 
L 430.146142 218.16 
L 430.673386 174.96 
L 431.20063 218.16 
L 431.727874 218.16 
M 432.782362 218.16 
L 433.309606 192.96 
L 433.83685 218.16 
M 435.418583 196.56 
L 435.945827 218.16 
M 440.691024 142.56 
L 441.218268 218.16 
L 441.745512 192.96 
L 442.272756 218.16 
L 442.8 218.16 
L 443.327244 209.265882 
L 443.854488 142.56 
L 444.381732 218.16 
M 445.963465 167.76 
L 446.490709 218.16 
M 449.126929 218.16 
L 449.654173 218.16 
M 451.76315 187.92 
L 452.290394 218.16 
L 454.39937 218.16 
M 456.508346 66.96 
L 457.035591 218.16 
M 462.308031 131.76 
L 462.835276 218.16 
L 463.36252 180.36 
M 465.99874 187.92 
L 466.525984 142.56 
L 467.053228 142.56 
M 474.434646 187.92 
L 474.96189 218.16 
M 478.652598 66.96 
L 479.179843 218.16 
M 481.288819 224.733913 
L 481.816063 218.16 
M 485.506772 218.16 
L 486.034016 218.16 
L 486.56126 227.61 
L 487.088504 227.61 
L 487.615748 218.16 
L 488.142992 211.86 
L 488.670236 218.16 
L 489.19748 218.16 
M 491.833701 218.16 
L 492.888189 218.16 
L 493.415433 210.471864 
L 493.942677 218.16 
L 494.469921 196.56 
L 494.997165 218.16 
L 495.524409 204.414545 
L 496.051654 206.529231 
L 496.578898 142.56 
L 497.106142 213.12 
L 497.633386 167.76 
L 498.16063 218.16 
L 498.687874 187.92 
L 499.215118 201.36 
L 499.742362 218.16 
L 500.269606 194.898462 
L 500.79685 218.16 
L 501.324094 218.16 
M 502.378583 212.946207 
L 502.905827 218.16 
L 503.960315 218.16 
L 504.487559 230.76 
M 506.596535 218.16 
L 507.12378 218.16 
L 507.651024 66.96 
M 508.705512 201.36 
L 509.232756 196.56 
L 509.76 199.26 
L 510.287244 206.529231 
L 510.814488 195.48 
L 511.341732 208.71 
L 511.868976 207.477391 
L 512.39622 224.46 
L 512.923465 191.864348 
L 513.450709 231.028085 
L 513.977953 218.16 
L 514.505197 228.24 
L 515.032441 172.8 
L 515.559685 218.16 
M 518.195906 218.16 
L 518.72315 203.985 
L 519.250394 218.16 
M 520.832126 199.26 
L 521.35937 229.790769 
L 521.886614 218.16 
M 522.941102 218.16 
L 523.468346 180.36 
M 524.522835 218.16 
L 527.686299 218.16 
M 528.740787 153.36 
L 529.268031 207.36 
L 529.795276 196.56 
M 530.849764 218.16 
L 531.377008 218.16 
L 531.904252 180.36 
L 532.431496 239.76 
L 532.95874 157.68 
L 533.485984 249.991579 
L 534.013228 218.16 
M 535.067717 66.96 
L 535.594961 293.76 
L 536.122205 218.16 
M 538.231181 218.16 
L 538.758425 192.96 
L 539.285669 218.16 
M 540.340157 218.16 
L 540.867402 218.16 
M 544.030866 218.16 
L 544.55811 167.76 
M 548.248819 218.16 
L 548.776063 218.16 
M 554.048504 218.16 
L 554.575748 196.56 
L 555.102992 218.16 
M 556.684724 218.16 
L 557.211969 218.16 
L 557.739213 204.414545 
L 558.266457 153.36 
L 558.793701 218.16 
L 559.320945 218.16 
M 561.429921 218.16 
L 561.957165 208.71 
L 562.484409 218.16 
L 563.538898 218.16 
L 564.066142 210.6 
L 564.593386 167.76 
M 565.647874 214.5312 
L 566.175118 218.16 
L 567.229606 218.16 
L 567.75685 167.76 
L 568.284094 66.96 
M 569.338583 218.16 
L 569.865827 198 
L 570.393071 199.26 
M 571.447559 174.96 
L 571.974803 218.16 
L 572.502047 66.96 
M 573.556535 218.16 
L 574.08378 218.16 
L 574.611024 176.923636 
L 575.138268 218.16 
L 575.665512 187.92 
M 576.72 293.76 
L 577.247244 187.92 
L 577.774488 167.76 
L 578.301732 218.16 
M 579.883465 218.16 
L 580.937953 218.16 
L 581.465197 187.92 
M 584.101417 180.36 
L 584.628661 189.254118 
L 585.155906 218.16 
L 587.264882 218.16 
L 587.792126 209.265882 
M 589.901102 167.76 
L 590.428346 218.16 
M 591.482835 207.36 
L 592.010079 218.16 
L 592.537323 218.16 
M 594.119055 167.76 
L 594.646299 66.96 
L 595.173543 218.16 
L 595.700787 210.202105 
L 596.228031 218.16 
L 596.755276 218.16 
M 597.809764 200.371765 
L 598.337008 199.26 
L 598.864252 248.4 
M 601.500472 208.71 
L 602.027717 218.16 
M 603.082205 208.29913 
L 603.609449 218.16 
M 609.409134 278.64 
L 609.936378 192.96 
M 612.045354 369.36 
L 612.572598 218.16 
M 615.736063 218.16 
L 616.790551 218.16 
M 617.845039 218.16 
L 618.372283 187.92 
L 618.899528 218.16 
M 629.444409 187.92 
L 629.971654 218.16 
M 632.607874 167.76 
L 633.662362 205.56 
M 643.152756 218.16 
L 643.68 204.818824 
L 644.207244 218.16 
L 645.261732 218.16 
M 651.588661 218.16 
L 652.115906 218.16 
M 653.697638 180.36 
L 654.224882 218.16 
M 665.297008 218.16 
L 665.824252 218.16 
M 671.096693 218.16 
L 671.623937 218.16 
L 672.151181 192.96 
L 672.678425 218.16 
M 676.369134 218.16 
L 676.896378 218.16 
M 677.950866 117.36 
L 678.47811 218.16 
M 680.587087 218.16 
L 683.223307 218.16 
L 683.750551 209.265882 
L 684.277795 205.56 
L 684.805039 206.064 
L 685.332283 218.16 
L 686.386772 218.16 
M 687.44126 195.48 
L 687.968504 206.82 
L 688.495748 187.92 
L 689.022992 218.16 
L 689.550236 142.56 
M 690.604724 205.56 
L 691.131969 245.650909 
L 691.659213 218.16 
L 692.186457 118.399175 
L 692.713701 142.56 
L 693.240945 218.16 
L 694.295433 218.16 
L 694.822677 150.96 
L 695.349921 174.96 
L 695.877165 218.16 
L 696.404409 218.16 
L 696.931654 167.76 
M 697.986142 196.56 
L 698.513386 157.68 
L 699.04063 218.16 
L 699.567874 180.36 
L 700.095118 66.96 
M 702.204094 199.26 
L 702.731339 201.36 
L 703.258583 229.790769 
L 703.785827 66.96 
L 704.313071 167.76 
M 706.422047 187.92 
L 706.949291 180.36 
L 707.476535 218.16 
M 710.112756 142.56 
L 710.64 196.56 
M 715.912441 167.76 
L 716.439685 218.16 
L 716.966929 218.16 
L 717.494173 192.96 
L 718.021417 369.36 
L 718.548661 142.56 
M 719.60315 218.16 
L 720.130394 167.76 
L 720.657638 218.16 
L 721.712126 218.16 
M 723.293858 218.16 
L 723.821102 218.16 
M 725.930079 218.16 
L 726.457323 142.56 
M 734.365984 218.16 
L 735.947717 218.16 
M 737.002205 218.16 
L 737.529449 142.56 
M 748.601575 218.16 
L 749.656063 218.16 
M 753.346772 66.96 
L 753.874016 218.16 
L 754.40126 218.16 
L 754.928504 184.56 
L 755.455748 218.16 
L 755.982992 117.36 
L 756.510236 142.56 
M 758.091969 157.68 
L 758.619213 218.16 
L 759.146457 180.36 
L 759.673701 293.76 
L 760.200945 218.16 
M 761.255433 211.725957 
L 761.782677 66.96 
L 762.309921 198.438261 
L 762.837165 223.56 
L 763.364409 167.76 
L 763.891654 142.56 
M 764.946142 191.477647 
L 765.473386 187.92 
L 766.00063 190.669091 
L 766.527874 218.16 
L 767.055118 142.56 
M 768.109606 218.16 
L 769.164094 218.16 
L 769.691339 233.28 
L 770.218583 218.16 
L 770.745827 142.56 
M 773.382047 228.24 
L 773.909291 218.16 
L 774.436535 199.26 
L 774.96378 218.16 
M 776.018268 218.16 
L 776.545512 218.16 
L 777.072756 201.36 
L 777.6 218.16 
L 777.6 218.16 
" clip-path="url(#p50790c95e4)" style="fill: none; stroke: #008000; stroke-width: 1.5; stroke-linecap: round"/>
   </g>
   <g id="patch_3">
    <path d="M 108 384.48 
L 108 51.84 
" style="fill: none; stroke: #ffffff; stroke-width: 0.8; stroke-linejoin: miter; stroke-linecap: square"/>
   </g>
   <g id="patch_4">
    <path d="M 777.6 384.48 
L 777.6 51.84 
" style="fill: none; stroke: #ffffff; stroke-width: 0.8; stroke-linejoin: miter; stroke-linecap: square"/>
   </g>
   <g id="patch_5">
    <path d="M 108 384.48 
L 777.6 384.48 
" style="fill: none; stroke: #ffffff; stroke-width: 0.8; stroke-linejoin: miter; stroke-linecap: square"/>
   </g>
   <g id="patch_6">
    <path d="M 108 51.84 
L 777.6 51.84 
" style="fill: none; stroke: #ffffff; stroke-width: 0.8; stroke-linejoin: miter; stroke-linecap: square"/>
   </g>
   <g id="text_19">
    <!-- Sentiment Over Time -->
    <g style="fill: #262626" transform="translate(363.909562 45.84) scale(0.168 -0.168)">
     <defs>
      <path id="ArialMT-4f" d="M 309 2231 
Q 309 3372 921 4017 
Q 1534 4663 2503 4663 
Q 3138 4663 3647 4359 
Q 4156 4056 4423 3514 
Q 4691 2972 4691 2284 
Q 4691 1588 4409 1038 
Q 4128 488 3612 205 
Q 3097 -78 2500 -78 
Q 1853 -78 1343 234 
Q 834 547 571 1087 
Q 309 1628 309 2231 
z
M 934 2222 
Q 934 1394 1379 917 
Q 1825 441 2497 441 
Q 3181 441 3623 922 
Q 4066 1403 4066 2288 
Q 4066 2847 3877 3264 
Q 3688 3681 3323 3911 
Q 2959 4141 2506 4141 
Q 1863 4141 1398 3698 
Q 934 3256 934 2222 
z
" transform="scale(0.015625)"/>
      <path id="ArialMT-54" d="M 1659 0 
L 1659 4041 
L 150 4041 
L 150 4581 
L 3781 4581 
L 3781 4041 
L 2266 4041 
L 2266 0 
L 1659 0 
z
" transform="scale(0.015625)"/>
     </defs>
     <use xlink:href="#ArialMT-53"/>
     <use xlink:href="#ArialMT-65" x="66.699219"/>
     <use xlink:href="#ArialMT-6e" x="122.314453"/>
     <use xlink:href="#ArialMT-74" x="177.929688"/>
     <use xlink:href="#ArialMT-69" x="205.712891"/>
     <use xlink:href="#ArialMT-6d" x="227.929688"/>
     <use xlink:href="#ArialMT-65" x="311.230469"/>
     <use xlink:href="#ArialMT-6e" x="366.845703"/>
     <use xlink:href="#ArialMT-74" x="422.460938"/>
     <use xlink:href="#ArialMT-20" x="450.244141"/>
     <use xlink:href="#ArialMT-4f" x="478.027344"/>
     <use xlink:href="#ArialMT-76" x="555.810547"/>
     <use xlink:href="#ArialMT-65" x="605.810547"/>
     <use xlink:href="#ArialMT-72" x="661.425781"/>
     <use xlink:href="#ArialMT-20" x="694.726562"/>
     <use xlink:href="#ArialMT-54" x="720.759766"/>
     <use xlink:href="#ArialMT-69" x="778.09375"/>
     <use xlink:href="#ArialMT-6d" x="800.310547"/>
     <use xlink:href="#ArialMT-65" x="883.611328"/>
    </g>
   </g>
  </g>
 </g>
 <defs>
  <clipPath id="p50790c95e4">
   <rect x="108" y="51.84" width="669.6" height="332.64"/>
  </clipPath>
 </defs>
</svg>
