<?xml version="1.0" encoding="utf-8" standalone="no"?>
<!DOCTYPE svg PUBLIC "-//W3C//DTD SVG 1.1//EN"
  "http://www.w3.org/Graphics/SVG/1.1/DTD/svg11.dtd">
<svg xmlns:xlink="http://www.w3.org/1999/xlink" width="864pt" height="432pt" viewBox="0 0 864 432" xmlns="http://www.w3.org/2000/svg" version="1.1">
 <metadata>
  <rdf:RDF xmlns:dc="http://purl.org/dc/elements/1.1/" xmlns:cc="http://creativecommons.org/ns#" xmlns:rdf="http://www.w3.org/1999/02/22-rdf-syntax-ns#">
   <cc:Work>
    <dc:type rdf:resource="http://purl.org/dc/dcmitype/StillImage"/>
    <dc:date>2025-03-18T11:29:07.935773</dc:date>
    <dc:format>image/svg+xml</dc:format>
    <dc:creator>
     <cc:Agent>
      <dc:title>Matplotlib v3.9.2, https://matplotlib.org/</dc:title>
     </cc:Agent>
    </dc:creator>
   </cc:Work>
  </rdf:RDF>
 </metadata>
 <defs>
  <style type="text/css">*{stroke-linejoin: round; stroke-linecap: butt}</style>
 </defs>
 <g id="figure_1">
  <g id="patch_1">
   <path d="M 0 432 
L 864 432 
L 864 0 
L 0 0 
z
" style="fill: #ffffff"/>
  </g>
  <g id="axes_1">
   <g id="patch_2">
    <path d="M 108 384.48 
L 777.6 384.48 
L 777.6 51.84 
L 108 51.84 
z
" style="fill: #eaeaf2"/>
   </g>
   <g id="matplotlib.axis_1">
    <g id="xtick_1">
     <g id="line2d_1">
      <path d="M 108 384.48 
L 108 51.84 
" clip-path="url(#p5b438ae641)" style="fill: none; stroke: #ffffff; stroke-width: 0.8; stroke-linecap: round"/>
     </g>
    </g>
    <g id="xtick_2">
     <g id="line2d_2">
      <path d="M 165.99685 384.48 
L 165.99685 51.84 
" clip-path="url(#p5b438ae641)" style="fill: none; stroke: #ffffff; stroke-width: 0.8; stroke-linecap: round"/>
     </g>
     <g id="text_1">
      <!-- Jan -->
      <g style="fill: #262626" transform="translate(154.711538 401.500938) scale(0.14 -0.14)">
       <defs>
        <path id="ArialMT-4a" d="M 184 1300 
L 731 1375 
Q 753 850 928 656 
Q 1103 463 1413 463 
Q 1641 463 1806 567 
Q 1972 672 2034 851 
Q 2097 1031 2097 1425 
L 2097 4581 
L 2703 4581 
L 2703 1459 
Q 2703 884 2564 568 
Q 2425 253 2123 87 
Q 1822 -78 1416 -78 
Q 813 -78 492 269 
Q 172 616 184 1300 
z
" transform="scale(0.015625)"/>
        <path id="ArialMT-61" d="M 2588 409 
Q 2275 144 1986 34 
Q 1697 -75 1366 -75 
Q 819 -75 525 192 
Q 231 459 231 875 
Q 231 1119 342 1320 
Q 453 1522 633 1644 
Q 813 1766 1038 1828 
Q 1203 1872 1538 1913 
Q 2219 1994 2541 2106 
Q 2544 2222 2544 2253 
Q 2544 2597 2384 2738 
Q 2169 2928 1744 2928 
Q 1347 2928 1158 2789 
Q 969 2650 878 2297 
L 328 2372 
Q 403 2725 575 2942 
Q 747 3159 1072 3276 
Q 1397 3394 1825 3394 
Q 2250 3394 2515 3294 
Q 2781 3194 2906 3042 
Q 3031 2891 3081 2659 
Q 3109 2516 3109 2141 
L 3109 1391 
Q 3109 606 3145 398 
Q 3181 191 3288 0 
L 2700 0 
Q 2613 175 2588 409 
z
M 2541 1666 
Q 2234 1541 1622 1453 
Q 1275 1403 1131 1340 
Q 988 1278 909 1158 
Q 831 1038 831 891 
Q 831 666 1001 516 
Q 1172 366 1500 366 
Q 1825 366 2078 508 
Q 2331 650 2450 897 
Q 2541 1088 2541 1459 
L 2541 1666 
z
" transform="scale(0.015625)"/>
        <path id="ArialMT-6e" d="M 422 0 
L 422 3319 
L 928 3319 
L 928 2847 
Q 1294 3394 1984 3394 
Q 2284 3394 2536 3286 
Q 2788 3178 2913 3003 
Q 3038 2828 3088 2588 
Q 3119 2431 3119 2041 
L 3119 0 
L 2556 0 
L 2556 2019 
Q 2556 2363 2490 2533 
Q 2425 2703 2258 2804 
Q 2091 2906 1866 2906 
Q 1506 2906 1245 2678 
Q 984 2450 984 1813 
L 984 0 
L 422 0 
z
" transform="scale(0.015625)"/>
       </defs>
       <use xlink:href="#ArialMT-4a"/>
       <use xlink:href="#ArialMT-61" x="50"/>
       <use xlink:href="#ArialMT-6e" x="105.615234"/>
      </g>
      <!-- 2022 -->
      <g style="fill: #262626" transform="translate(150.426225 416.308562) scale(0.14 -0.14)">
       <defs>
        <path id="ArialMT-32" d="M 3222 541 
L 3222 0 
L 194 0 
Q 188 203 259 391 
Q 375 700 629 1000 
Q 884 1300 1366 1694 
Q 2113 2306 2375 2664 
Q 2638 3022 2638 3341 
Q 2638 3675 2398 3904 
Q 2159 4134 1775 4134 
Q 1369 4134 1125 3890 
Q 881 3647 878 3216 
L 300 3275 
Q 359 3922 746 4261 
Q 1134 4600 1788 4600 
Q 2447 4600 2831 4234 
Q 3216 3869 3216 3328 
Q 3216 3053 3103 2787 
Q 2991 2522 2730 2228 
Q 2469 1934 1863 1422 
Q 1356 997 1212 845 
Q 1069 694 975 541 
L 3222 541 
z
" transform="scale(0.015625)"/>
        <path id="ArialMT-30" d="M 266 2259 
Q 266 3072 433 3567 
Q 600 4063 929 4331 
Q 1259 4600 1759 4600 
Q 2128 4600 2406 4451 
Q 2684 4303 2865 4023 
Q 3047 3744 3150 3342 
Q 3253 2941 3253 2259 
Q 3253 1453 3087 958 
Q 2922 463 2592 192 
Q 2263 -78 1759 -78 
Q 1097 -78 719 397 
Q 266 969 266 2259 
z
M 844 2259 
Q 844 1131 1108 757 
Q 1372 384 1759 384 
Q 2147 384 2411 759 
Q 2675 1134 2675 2259 
Q 2675 3391 2411 3762 
Q 2147 4134 1753 4134 
Q 1366 4134 1134 3806 
Q 844 3388 844 2259 
z
" transform="scale(0.015625)"/>
       </defs>
       <use xlink:href="#ArialMT-32"/>
       <use xlink:href="#ArialMT-30" x="55.615234"/>
       <use xlink:href="#ArialMT-32" x="111.230469"/>
       <use xlink:href="#ArialMT-32" x="166.845703"/>
      </g>
     </g>
    </g>
    <g id="xtick_3">
     <g id="line2d_3">
      <path d="M 358.440945 384.48 
L 358.440945 51.84 
" clip-path="url(#p5b438ae641)" style="fill: none; stroke: #ffffff; stroke-width: 0.8; stroke-linecap: round"/>
     </g>
     <g id="text_2">
      <!-- Jan -->
      <g style="fill: #262626" transform="translate(347.155632 401.500938) scale(0.14 -0.14)">
       <use xlink:href="#ArialMT-4a"/>
       <use xlink:href="#ArialMT-61" x="50"/>
       <use xlink:href="#ArialMT-6e" x="105.615234"/>
      </g>
      <!-- 2023 -->
      <g style="fill: #262626" transform="translate(342.87032 416.308562) scale(0.14 -0.14)">
       <defs>
        <path id="ArialMT-33" d="M 269 1209 
L 831 1284 
Q 928 806 1161 595 
Q 1394 384 1728 384 
Q 2125 384 2398 659 
Q 2672 934 2672 1341 
Q 2672 1728 2419 1979 
Q 2166 2231 1775 2231 
Q 1616 2231 1378 2169 
L 1441 2663 
Q 1497 2656 1531 2656 
Q 1891 2656 2178 2843 
Q 2466 3031 2466 3422 
Q 2466 3731 2256 3934 
Q 2047 4138 1716 4138 
Q 1388 4138 1169 3931 
Q 950 3725 888 3313 
L 325 3413 
Q 428 3978 793 4289 
Q 1159 4600 1703 4600 
Q 2078 4600 2393 4439 
Q 2709 4278 2876 4000 
Q 3044 3722 3044 3409 
Q 3044 3113 2884 2869 
Q 2725 2625 2413 2481 
Q 2819 2388 3044 2092 
Q 3269 1797 3269 1353 
Q 3269 753 2831 336 
Q 2394 -81 1725 -81 
Q 1122 -81 723 278 
Q 325 638 269 1209 
z
" transform="scale(0.015625)"/>
       </defs>
       <use xlink:href="#ArialMT-32"/>
       <use xlink:href="#ArialMT-30" x="55.615234"/>
       <use xlink:href="#ArialMT-32" x="111.230469"/>
       <use xlink:href="#ArialMT-33" x="166.845703"/>
      </g>
     </g>
    </g>
    <g id="xtick_4">
     <g id="line2d_4">
      <path d="M 550.885039 384.48 
L 550.885039 51.84 
" clip-path="url(#p5b438ae641)" style="fill: none; stroke: #ffffff; stroke-width: 0.8; stroke-linecap: round"/>
     </g>
     <g id="text_3">
      <!-- Jan -->
      <g style="fill: #262626" transform="translate(539.599727 401.500938) scale(0.14 -0.14)">
       <use xlink:href="#ArialMT-4a"/>
       <use xlink:href="#ArialMT-61" x="50"/>
       <use xlink:href="#ArialMT-6e" x="105.615234"/>
      </g>
      <!-- 2024 -->
      <g style="fill: #262626" transform="translate(535.314414 416.308562) scale(0.14 -0.14)">
       <defs>
        <path id="ArialMT-34" d="M 2069 0 
L 2069 1097 
L 81 1097 
L 81 1613 
L 2172 4581 
L 2631 4581 
L 2631 1613 
L 3250 1613 
L 3250 1097 
L 2631 1097 
L 2631 0 
L 2069 0 
z
M 2069 1613 
L 2069 3678 
L 634 1613 
L 2069 1613 
z
" transform="scale(0.015625)"/>
       </defs>
       <use xlink:href="#ArialMT-32"/>
       <use xlink:href="#ArialMT-30" x="55.615234"/>
       <use xlink:href="#ArialMT-32" x="111.230469"/>
       <use xlink:href="#ArialMT-34" x="166.845703"/>
      </g>
     </g>
    </g>
    <g id="xtick_5">
     <g id="line2d_5">
      <path d="M 743.856378 384.48 
L 743.856378 51.84 
" clip-path="url(#p5b438ae641)" style="fill: none; stroke: #ffffff; stroke-width: 0.8; stroke-linecap: round"/>
     </g>
     <g id="text_4">
      <!-- Jan -->
      <g style="fill: #262626" transform="translate(732.571065 401.500938) scale(0.14 -0.14)">
       <use xlink:href="#ArialMT-4a"/>
       <use xlink:href="#ArialMT-61" x="50"/>
       <use xlink:href="#ArialMT-6e" x="105.615234"/>
      </g>
      <!-- 2025 -->
      <g style="fill: #262626" transform="translate(728.285753 416.308562) scale(0.14 -0.14)">
       <defs>
        <path id="ArialMT-35" d="M 266 1200 
L 856 1250 
Q 922 819 1161 601 
Q 1400 384 1738 384 
Q 2144 384 2425 690 
Q 2706 997 2706 1503 
Q 2706 1984 2436 2262 
Q 2166 2541 1728 2541 
Q 1456 2541 1237 2417 
Q 1019 2294 894 2097 
L 366 2166 
L 809 4519 
L 3088 4519 
L 3088 3981 
L 1259 3981 
L 1013 2750 
Q 1425 3038 1878 3038 
Q 2478 3038 2890 2622 
Q 3303 2206 3303 1553 
Q 3303 931 2941 478 
Q 2500 -78 1738 -78 
Q 1113 -78 717 272 
Q 322 622 266 1200 
z
" transform="scale(0.015625)"/>
       </defs>
       <use xlink:href="#ArialMT-32"/>
       <use xlink:href="#ArialMT-30" x="55.615234"/>
       <use xlink:href="#ArialMT-32" x="111.230469"/>
       <use xlink:href="#ArialMT-35" x="166.845703"/>
      </g>
     </g>
    </g>
    <g id="xtick_6">
     <g id="line2d_6">
      <path d="M 777.6 384.48 
L 777.6 51.84 
" clip-path="url(#p5b438ae641)" style="fill: none; stroke: #ffffff; stroke-width: 0.8; stroke-linecap: round"/>
     </g>
    </g>
    <g id="xtick_7"/>
    <g id="xtick_8"/>
    <g id="xtick_9"/>
    <g id="xtick_10"/>
    <g id="xtick_11"/>
    <g id="xtick_12"/>
    <g id="xtick_13"/>
    <g id="xtick_14"/>
    <g id="xtick_15">
     <g id="text_5">
      <!-- Jul -->
      <g style="fill: #262626" transform="translate(252.480063 399.900937) scale(0.14 -0.14)">
       <defs>
        <path id="ArialMT-75" d="M 2597 0 
L 2597 488 
Q 2209 -75 1544 -75 
Q 1250 -75 995 37 
Q 741 150 617 320 
Q 494 491 444 738 
Q 409 903 409 1263 
L 409 3319 
L 972 3319 
L 972 1478 
Q 972 1038 1006 884 
Q 1059 663 1231 536 
Q 1403 409 1656 409 
Q 1909 409 2131 539 
Q 2353 669 2445 892 
Q 2538 1116 2538 1541 
L 2538 3319 
L 3100 3319 
L 3100 0 
L 2597 0 
z
" transform="scale(0.015625)"/>
        <path id="ArialMT-6c" d="M 409 0 
L 409 4581 
L 972 4581 
L 972 0 
L 409 0 
z
" transform="scale(0.015625)"/>
       </defs>
       <use xlink:href="#ArialMT-4a"/>
       <use xlink:href="#ArialMT-75" x="50"/>
       <use xlink:href="#ArialMT-6c" x="105.615234"/>
      </g>
     </g>
    </g>
    <g id="xtick_16"/>
    <g id="xtick_17"/>
    <g id="xtick_18"/>
    <g id="xtick_19"/>
    <g id="xtick_20"/>
    <g id="xtick_21"/>
    <g id="xtick_22"/>
    <g id="xtick_23"/>
    <g id="xtick_24"/>
    <g id="xtick_25"/>
    <g id="xtick_26">
     <g id="text_6">
      <!-- Jul -->
      <g style="fill: #262626" transform="translate(444.924157 399.900937) scale(0.14 -0.14)">
       <use xlink:href="#ArialMT-4a"/>
       <use xlink:href="#ArialMT-75" x="50"/>
       <use xlink:href="#ArialMT-6c" x="105.615234"/>
      </g>
     </g>
    </g>
    <g id="xtick_27"/>
    <g id="xtick_28"/>
    <g id="xtick_29"/>
    <g id="xtick_30"/>
    <g id="xtick_31"/>
    <g id="xtick_32"/>
    <g id="xtick_33"/>
    <g id="xtick_34"/>
    <g id="xtick_35"/>
    <g id="xtick_36"/>
    <g id="xtick_37">
     <g id="text_7">
      <!-- Jul -->
      <g style="fill: #262626" transform="translate(637.895496 399.900937) scale(0.14 -0.14)">
       <use xlink:href="#ArialMT-4a"/>
       <use xlink:href="#ArialMT-75" x="50"/>
       <use xlink:href="#ArialMT-6c" x="105.615234"/>
      </g>
     </g>
    </g>
    <g id="xtick_38"/>
    <g id="xtick_39"/>
    <g id="xtick_40"/>
    <g id="xtick_41"/>
    <g id="xtick_42"/>
    <g id="xtick_43"/>
    <g id="xtick_44"/>
    <g id="text_8">
     <!-- Date -->
     <g style="fill: #262626" transform="translate(428.014688 433.112) scale(0.14 -0.14)">
      <defs>
       <path id="ArialMT-44" d="M 494 0 
L 494 4581 
L 2072 4581 
Q 2606 4581 2888 4516 
Q 3281 4425 3559 4188 
Q 3922 3881 4101 3404 
Q 4281 2928 4281 2316 
Q 4281 1794 4159 1391 
Q 4038 988 3847 723 
Q 3656 459 3429 307 
Q 3203 156 2883 78 
Q 2563 0 2147 0 
L 494 0 
z
M 1100 541 
L 2078 541 
Q 2531 541 2789 625 
Q 3047 709 3200 863 
Q 3416 1078 3536 1442 
Q 3656 1806 3656 2325 
Q 3656 3044 3420 3430 
Q 3184 3816 2847 3947 
Q 2603 4041 2063 4041 
L 1100 4041 
L 1100 541 
z
" transform="scale(0.015625)"/>
       <path id="ArialMT-74" d="M 1650 503 
L 1731 6 
Q 1494 -44 1306 -44 
Q 1000 -44 831 53 
Q 663 150 594 308 
Q 525 466 525 972 
L 525 2881 
L 113 2881 
L 113 3319 
L 525 3319 
L 525 4141 
L 1084 4478 
L 1084 3319 
L 1650 3319 
L 1650 2881 
L 1084 2881 
L 1084 941 
Q 1084 700 1114 631 
Q 1144 563 1211 522 
Q 1278 481 1403 481 
Q 1497 481 1650 503 
z
" transform="scale(0.015625)"/>
       <path id="ArialMT-65" d="M 2694 1069 
L 3275 997 
Q 3138 488 2766 206 
Q 2394 -75 1816 -75 
Q 1088 -75 661 373 
Q 234 822 234 1631 
Q 234 2469 665 2931 
Q 1097 3394 1784 3394 
Q 2450 3394 2872 2941 
Q 3294 2488 3294 1666 
Q 3294 1616 3291 1516 
L 816 1516 
Q 847 969 1125 678 
Q 1403 388 1819 388 
Q 2128 388 2347 550 
Q 2566 713 2694 1069 
z
M 847 1978 
L 2700 1978 
Q 2663 2397 2488 2606 
Q 2219 2931 1791 2931 
Q 1403 2931 1139 2672 
Q 875 2413 847 1978 
z
" transform="scale(0.015625)"/>
      </defs>
      <use xlink:href="#ArialMT-44"/>
      <use xlink:href="#ArialMT-61" x="72.216797"/>
      <use xlink:href="#ArialMT-74" x="127.832031"/>
      <use xlink:href="#ArialMT-65" x="155.615234"/>
     </g>
    </g>
   </g>
   <g id="matplotlib.axis_2">
    <g id="ytick_1">
     <g id="line2d_7">
      <path d="M 108 351.355987 
L 777.6 351.355987 
" clip-path="url(#p5b438ae641)" style="fill: none; stroke: #ffffff; stroke-width: 0.8; stroke-linecap: round"/>
     </g>
     <g id="text_9">
      <!-- −0.6 -->
      <g style="fill: #262626" transform="translate(73.363125 356.366456) scale(0.14 -0.14)">
       <defs>
        <path id="ArialMT-2212" d="M 3381 1997 
L 356 1997 
L 356 2522 
L 3381 2522 
L 3381 1997 
z
" transform="scale(0.015625)"/>
        <path id="ArialMT-2e" d="M 581 0 
L 581 641 
L 1222 641 
L 1222 0 
L 581 0 
z
" transform="scale(0.015625)"/>
        <path id="ArialMT-36" d="M 3184 3459 
L 2625 3416 
Q 2550 3747 2413 3897 
Q 2184 4138 1850 4138 
Q 1581 4138 1378 3988 
Q 1113 3794 959 3422 
Q 806 3050 800 2363 
Q 1003 2672 1297 2822 
Q 1591 2972 1913 2972 
Q 2475 2972 2870 2558 
Q 3266 2144 3266 1488 
Q 3266 1056 3080 686 
Q 2894 316 2569 119 
Q 2244 -78 1831 -78 
Q 1128 -78 684 439 
Q 241 956 241 2144 
Q 241 3472 731 4075 
Q 1159 4600 1884 4600 
Q 2425 4600 2770 4297 
Q 3116 3994 3184 3459 
z
M 888 1484 
Q 888 1194 1011 928 
Q 1134 663 1356 523 
Q 1578 384 1822 384 
Q 2178 384 2434 671 
Q 2691 959 2691 1453 
Q 2691 1928 2437 2201 
Q 2184 2475 1800 2475 
Q 1419 2475 1153 2201 
Q 888 1928 888 1484 
z
" transform="scale(0.015625)"/>
       </defs>
       <use xlink:href="#ArialMT-2212"/>
       <use xlink:href="#ArialMT-30" x="58.398438"/>
       <use xlink:href="#ArialMT-2e" x="114.013672"/>
       <use xlink:href="#ArialMT-36" x="141.796875"/>
      </g>
     </g>
    </g>
    <g id="ytick_2">
     <g id="line2d_8">
      <path d="M 108 311.699571 
L 777.6 311.699571 
" clip-path="url(#p5b438ae641)" style="fill: none; stroke: #ffffff; stroke-width: 0.8; stroke-linecap: round"/>
     </g>
     <g id="text_10">
      <!-- −0.4 -->
      <g style="fill: #262626" transform="translate(73.363125 316.71004) scale(0.14 -0.14)">
       <use xlink:href="#ArialMT-2212"/>
       <use xlink:href="#ArialMT-30" x="58.398438"/>
       <use xlink:href="#ArialMT-2e" x="114.013672"/>
       <use xlink:href="#ArialMT-34" x="141.796875"/>
      </g>
     </g>
    </g>
    <g id="ytick_3">
     <g id="line2d_9">
      <path d="M 108 272.043155 
L 777.6 272.043155 
" clip-path="url(#p5b438ae641)" style="fill: none; stroke: #ffffff; stroke-width: 0.8; stroke-linecap: round"/>
     </g>
     <g id="text_11">
      <!-- −0.2 -->
      <g style="fill: #262626" transform="translate(73.363125 277.053624) scale(0.14 -0.14)">
       <use xlink:href="#ArialMT-2212"/>
       <use xlink:href="#ArialMT-30" x="58.398438"/>
       <use xlink:href="#ArialMT-2e" x="114.013672"/>
       <use xlink:href="#ArialMT-32" x="141.796875"/>
      </g>
     </g>
    </g>
    <g id="ytick_4">
     <g id="line2d_10">
      <path d="M 108 232.386739 
L 777.6 232.386739 
" clip-path="url(#p5b438ae641)" style="fill: none; stroke: #ffffff; stroke-width: 0.8; stroke-linecap: round"/>
     </g>
     <g id="text_12">
      <!-- 0.0 -->
      <g style="fill: #262626" transform="translate(81.54 237.397208) scale(0.14 -0.14)">
       <use xlink:href="#ArialMT-30"/>
       <use xlink:href="#ArialMT-2e" x="55.615234"/>
       <use xlink:href="#ArialMT-30" x="83.398438"/>
      </g>
     </g>
    </g>
    <g id="ytick_5">
     <g id="line2d_11">
      <path d="M 108 192.730323 
L 777.6 192.730323 
" clip-path="url(#p5b438ae641)" style="fill: none; stroke: #ffffff; stroke-width: 0.8; stroke-linecap: round"/>
     </g>
     <g id="text_13">
      <!-- 0.2 -->
      <g style="fill: #262626" transform="translate(81.54 197.740792) scale(0.14 -0.14)">
       <use xlink:href="#ArialMT-30"/>
       <use xlink:href="#ArialMT-2e" x="55.615234"/>
       <use xlink:href="#ArialMT-32" x="83.398438"/>
      </g>
     </g>
    </g>
    <g id="ytick_6">
     <g id="line2d_12">
      <path d="M 108 153.073907 
L 777.6 153.073907 
" clip-path="url(#p5b438ae641)" style="fill: none; stroke: #ffffff; stroke-width: 0.8; stroke-linecap: round"/>
     </g>
     <g id="text_14">
      <!-- 0.4 -->
      <g style="fill: #262626" transform="translate(81.54 158.084376) scale(0.14 -0.14)">
       <use xlink:href="#ArialMT-30"/>
       <use xlink:href="#ArialMT-2e" x="55.615234"/>
       <use xlink:href="#ArialMT-34" x="83.398438"/>
      </g>
     </g>
    </g>
    <g id="ytick_7">
     <g id="line2d_13">
      <path d="M 108 113.417491 
L 777.6 113.417491 
" clip-path="url(#p5b438ae641)" style="fill: none; stroke: #ffffff; stroke-width: 0.8; stroke-linecap: round"/>
     </g>
     <g id="text_15">
      <!-- 0.6 -->
      <g style="fill: #262626" transform="translate(81.54 118.42796) scale(0.14 -0.14)">
       <use xlink:href="#ArialMT-30"/>
       <use xlink:href="#ArialMT-2e" x="55.615234"/>
       <use xlink:href="#ArialMT-36" x="83.398438"/>
      </g>
     </g>
    </g>
    <g id="ytick_8">
     <g id="line2d_14">
      <path d="M 108 73.761075 
L 777.6 73.761075 
" clip-path="url(#p5b438ae641)" style="fill: none; stroke: #ffffff; stroke-width: 0.8; stroke-linecap: round"/>
     </g>
     <g id="text_16">
      <!-- 0.8 -->
      <g style="fill: #262626" transform="translate(81.54 78.771544) scale(0.14 -0.14)">
       <defs>
        <path id="ArialMT-38" d="M 1131 2484 
Q 781 2613 612 2850 
Q 444 3088 444 3419 
Q 444 3919 803 4259 
Q 1163 4600 1759 4600 
Q 2359 4600 2725 4251 
Q 3091 3903 3091 3403 
Q 3091 3084 2923 2848 
Q 2756 2613 2416 2484 
Q 2838 2347 3058 2040 
Q 3278 1734 3278 1309 
Q 3278 722 2862 322 
Q 2447 -78 1769 -78 
Q 1091 -78 675 323 
Q 259 725 259 1325 
Q 259 1772 486 2073 
Q 713 2375 1131 2484 
z
M 1019 3438 
Q 1019 3113 1228 2906 
Q 1438 2700 1772 2700 
Q 2097 2700 2305 2904 
Q 2513 3109 2513 3406 
Q 2513 3716 2298 3927 
Q 2084 4138 1766 4138 
Q 1444 4138 1231 3931 
Q 1019 3725 1019 3438 
z
M 838 1322 
Q 838 1081 952 856 
Q 1066 631 1291 507 
Q 1516 384 1775 384 
Q 2178 384 2440 643 
Q 2703 903 2703 1303 
Q 2703 1709 2433 1975 
Q 2163 2241 1756 2241 
Q 1359 2241 1098 1978 
Q 838 1716 838 1322 
z
" transform="scale(0.015625)"/>
       </defs>
       <use xlink:href="#ArialMT-30"/>
       <use xlink:href="#ArialMT-2e" x="55.615234"/>
       <use xlink:href="#ArialMT-38" x="83.398438"/>
      </g>
     </g>
    </g>
    <g id="text_17">
     <!-- Average VADER Sentiment Score -->
     <g style="fill: #262626" transform="translate(66.416562 323.344844) rotate(-90) scale(0.14 -0.14)">
      <defs>
       <path id="ArialMT-41" d="M -9 0 
L 1750 4581 
L 2403 4581 
L 4278 0 
L 3588 0 
L 3053 1388 
L 1138 1388 
L 634 0 
L -9 0 
z
M 1313 1881 
L 2866 1881 
L 2388 3150 
Q 2169 3728 2063 4100 
Q 1975 3659 1816 3225 
L 1313 1881 
z
" transform="scale(0.015625)"/>
       <path id="ArialMT-76" d="M 1344 0 
L 81 3319 
L 675 3319 
L 1388 1331 
Q 1503 1009 1600 663 
Q 1675 925 1809 1294 
L 2547 3319 
L 3125 3319 
L 1869 0 
L 1344 0 
z
" transform="scale(0.015625)"/>
       <path id="ArialMT-72" d="M 416 0 
L 416 3319 
L 922 3319 
L 922 2816 
Q 1116 3169 1280 3281 
Q 1444 3394 1641 3394 
Q 1925 3394 2219 3213 
L 2025 2691 
Q 1819 2813 1613 2813 
Q 1428 2813 1281 2702 
Q 1134 2591 1072 2394 
Q 978 2094 978 1738 
L 978 0 
L 416 0 
z
" transform="scale(0.015625)"/>
       <path id="ArialMT-67" d="M 319 -275 
L 866 -356 
Q 900 -609 1056 -725 
Q 1266 -881 1628 -881 
Q 2019 -881 2231 -725 
Q 2444 -569 2519 -288 
Q 2563 -116 2559 434 
Q 2191 0 1641 0 
Q 956 0 581 494 
Q 206 988 206 1678 
Q 206 2153 378 2554 
Q 550 2956 876 3175 
Q 1203 3394 1644 3394 
Q 2231 3394 2613 2919 
L 2613 3319 
L 3131 3319 
L 3131 450 
Q 3131 -325 2973 -648 
Q 2816 -972 2473 -1159 
Q 2131 -1347 1631 -1347 
Q 1038 -1347 672 -1080 
Q 306 -813 319 -275 
z
M 784 1719 
Q 784 1066 1043 766 
Q 1303 466 1694 466 
Q 2081 466 2343 764 
Q 2606 1063 2606 1700 
Q 2606 2309 2336 2618 
Q 2066 2928 1684 2928 
Q 1309 2928 1046 2623 
Q 784 2319 784 1719 
z
" transform="scale(0.015625)"/>
       <path id="ArialMT-20" transform="scale(0.015625)"/>
       <path id="ArialMT-56" d="M 1803 0 
L 28 4581 
L 684 4581 
L 1875 1253 
Q 2019 853 2116 503 
Q 2222 878 2363 1253 
L 3600 4581 
L 4219 4581 
L 2425 0 
L 1803 0 
z
" transform="scale(0.015625)"/>
       <path id="ArialMT-45" d="M 506 0 
L 506 4581 
L 3819 4581 
L 3819 4041 
L 1113 4041 
L 1113 2638 
L 3647 2638 
L 3647 2100 
L 1113 2100 
L 1113 541 
L 3925 541 
L 3925 0 
L 506 0 
z
" transform="scale(0.015625)"/>
       <path id="ArialMT-52" d="M 503 0 
L 503 4581 
L 2534 4581 
Q 3147 4581 3465 4457 
Q 3784 4334 3975 4021 
Q 4166 3709 4166 3331 
Q 4166 2844 3850 2509 
Q 3534 2175 2875 2084 
Q 3116 1969 3241 1856 
Q 3506 1613 3744 1247 
L 4541 0 
L 3778 0 
L 3172 953 
Q 2906 1366 2734 1584 
Q 2563 1803 2427 1890 
Q 2291 1978 2150 2013 
Q 2047 2034 1813 2034 
L 1109 2034 
L 1109 0 
L 503 0 
z
M 1109 2559 
L 2413 2559 
Q 2828 2559 3062 2645 
Q 3297 2731 3419 2920 
Q 3541 3109 3541 3331 
Q 3541 3656 3305 3865 
Q 3069 4075 2559 4075 
L 1109 4075 
L 1109 2559 
z
" transform="scale(0.015625)"/>
       <path id="ArialMT-53" d="M 288 1472 
L 859 1522 
Q 900 1178 1048 958 
Q 1197 738 1509 602 
Q 1822 466 2213 466 
Q 2559 466 2825 569 
Q 3091 672 3220 851 
Q 3350 1031 3350 1244 
Q 3350 1459 3225 1620 
Q 3100 1781 2813 1891 
Q 2628 1963 1997 2114 
Q 1366 2266 1113 2400 
Q 784 2572 623 2826 
Q 463 3081 463 3397 
Q 463 3744 659 4045 
Q 856 4347 1234 4503 
Q 1613 4659 2075 4659 
Q 2584 4659 2973 4495 
Q 3363 4331 3572 4012 
Q 3781 3694 3797 3291 
L 3216 3247 
Q 3169 3681 2898 3903 
Q 2628 4125 2100 4125 
Q 1550 4125 1298 3923 
Q 1047 3722 1047 3438 
Q 1047 3191 1225 3031 
Q 1400 2872 2139 2705 
Q 2878 2538 3153 2413 
Q 3553 2228 3743 1945 
Q 3934 1663 3934 1294 
Q 3934 928 3725 604 
Q 3516 281 3123 101 
Q 2731 -78 2241 -78 
Q 1619 -78 1198 103 
Q 778 284 539 648 
Q 300 1013 288 1472 
z
" transform="scale(0.015625)"/>
       <path id="ArialMT-69" d="M 425 3934 
L 425 4581 
L 988 4581 
L 988 3934 
L 425 3934 
z
M 425 0 
L 425 3319 
L 988 3319 
L 988 0 
L 425 0 
z
" transform="scale(0.015625)"/>
       <path id="ArialMT-6d" d="M 422 0 
L 422 3319 
L 925 3319 
L 925 2853 
Q 1081 3097 1340 3245 
Q 1600 3394 1931 3394 
Q 2300 3394 2536 3241 
Q 2772 3088 2869 2813 
Q 3263 3394 3894 3394 
Q 4388 3394 4653 3120 
Q 4919 2847 4919 2278 
L 4919 0 
L 4359 0 
L 4359 2091 
Q 4359 2428 4304 2576 
Q 4250 2725 4106 2815 
Q 3963 2906 3769 2906 
Q 3419 2906 3187 2673 
Q 2956 2441 2956 1928 
L 2956 0 
L 2394 0 
L 2394 2156 
Q 2394 2531 2256 2718 
Q 2119 2906 1806 2906 
Q 1569 2906 1367 2781 
Q 1166 2656 1075 2415 
Q 984 2175 984 1722 
L 984 0 
L 422 0 
z
" transform="scale(0.015625)"/>
       <path id="ArialMT-63" d="M 2588 1216 
L 3141 1144 
Q 3050 572 2676 248 
Q 2303 -75 1759 -75 
Q 1078 -75 664 370 
Q 250 816 250 1647 
Q 250 2184 428 2587 
Q 606 2991 970 3192 
Q 1334 3394 1763 3394 
Q 2303 3394 2647 3120 
Q 2991 2847 3088 2344 
L 2541 2259 
Q 2463 2594 2264 2762 
Q 2066 2931 1784 2931 
Q 1359 2931 1093 2626 
Q 828 2322 828 1663 
Q 828 994 1084 691 
Q 1341 388 1753 388 
Q 2084 388 2306 591 
Q 2528 794 2588 1216 
z
" transform="scale(0.015625)"/>
       <path id="ArialMT-6f" d="M 213 1659 
Q 213 2581 725 3025 
Q 1153 3394 1769 3394 
Q 2453 3394 2887 2945 
Q 3322 2497 3322 1706 
Q 3322 1066 3130 698 
Q 2938 331 2570 128 
Q 2203 -75 1769 -75 
Q 1072 -75 642 372 
Q 213 819 213 1659 
z
M 791 1659 
Q 791 1022 1069 705 
Q 1347 388 1769 388 
Q 2188 388 2466 706 
Q 2744 1025 2744 1678 
Q 2744 2294 2464 2611 
Q 2184 2928 1769 2928 
Q 1347 2928 1069 2612 
Q 791 2297 791 1659 
z
" transform="scale(0.015625)"/>
      </defs>
      <use xlink:href="#ArialMT-41"/>
      <use xlink:href="#ArialMT-76" x="64.949219"/>
      <use xlink:href="#ArialMT-65" x="114.949219"/>
      <use xlink:href="#ArialMT-72" x="170.564453"/>
      <use xlink:href="#ArialMT-61" x="203.865234"/>
      <use xlink:href="#ArialMT-67" x="259.480469"/>
      <use xlink:href="#ArialMT-65" x="315.095703"/>
      <use xlink:href="#ArialMT-20" x="370.710938"/>
      <use xlink:href="#ArialMT-56" x="398.494141"/>
      <use xlink:href="#ArialMT-41" x="457.818359"/>
      <use xlink:href="#ArialMT-44" x="524.517578"/>
      <use xlink:href="#ArialMT-45" x="596.734375"/>
      <use xlink:href="#ArialMT-52" x="663.433594"/>
      <use xlink:href="#ArialMT-20" x="735.650391"/>
      <use xlink:href="#ArialMT-53" x="763.433594"/>
      <use xlink:href="#ArialMT-65" x="830.132812"/>
      <use xlink:href="#ArialMT-6e" x="885.748047"/>
      <use xlink:href="#ArialMT-74" x="941.363281"/>
      <use xlink:href="#ArialMT-69" x="969.146484"/>
      <use xlink:href="#ArialMT-6d" x="991.363281"/>
      <use xlink:href="#ArialMT-65" x="1074.664062"/>
      <use xlink:href="#ArialMT-6e" x="1130.279297"/>
      <use xlink:href="#ArialMT-74" x="1185.894531"/>
      <use xlink:href="#ArialMT-20" x="1213.677734"/>
      <use xlink:href="#ArialMT-53" x="1241.460938"/>
      <use xlink:href="#ArialMT-63" x="1308.160156"/>
      <use xlink:href="#ArialMT-6f" x="1358.160156"/>
      <use xlink:href="#ArialMT-72" x="1413.775391"/>
      <use xlink:href="#ArialMT-65" x="1447.076172"/>
     </g>
    </g>
   </g>
   <g id="line2d_15">
    <path d="M 377.421732 240.218881 
L 377.948976 247.059613 
L 378.47622 229.569854 
L 379.003465 235.313259 
L 379.530709 217.770706 
L 380.057953 233.73784 
L 380.585197 219.908411 
L 381.112441 226.725384 
L 381.639685 227.116685 
L 382.166929 225.515974 
L 382.694173 222.147272 
L 383.221417 226.44943 
L 383.748661 244.125038 
L 384.275906 216.875673 
L 384.80315 227.616889 
L 385.330394 211.662088 
L 385.857638 227.594622 
L 386.384882 236.457783 
L 386.912126 232.386739 
L 387.43937 214.883719 
L 387.966614 232.386739 
L 388.493858 232.386739 
L 389.021102 203.27893 
L 389.548346 232.386739 
L 390.075591 232.386739 
L 390.602835 227.128959 
L 391.130079 232.386739 
L 391.657323 230.243768 
L 392.711811 235.151702 
L 393.239055 224.679575 
L 393.766299 229.718944 
L 394.293543 231.34352 
M 395.348031 227.495781 
L 395.875276 228.573622 
L 396.40252 235.678222 
L 396.929764 206.992381 
L 397.457008 227.784792 
L 397.984252 232.386739 
L 398.511496 223.765074 
L 399.03874 220.762452 
L 399.565984 235.716835 
L 400.093228 226.047072 
L 400.620472 220.741385 
L 401.147717 232.118157 
L 401.674961 232.386739 
L 402.202205 232.386739 
L 402.729449 203.27893 
L 403.256693 246.852904 
L 403.783937 212.062826 
L 404.311181 227.140195 
L 404.838425 229.835054 
L 405.365669 226.887187 
L 405.892913 222.604351 
L 406.420157 232.386739 
L 406.947402 200.721091 
L 407.474646 208.110912 
L 408.00189 232.386739 
L 408.529134 238.816251 
M 410.63811 232.386739 
L 411.165354 218.437595 
L 411.692598 224.236302 
L 412.219843 204.563188 
L 412.747087 217.832835 
M 414.328819 220.585651 
L 414.856063 187.515505 
M 419.60126 232.386739 
L 420.128504 185.641739 
L 420.655748 171.672766 
M 422.23748 232.386739 
L 424.346457 232.386739 
M 426.455433 232.823822 
L 426.982677 229.83551 
L 427.509921 232.386739 
L 428.037165 233.548672 
M 429.091654 225.103525 
L 429.618898 232.386739 
L 430.146142 232.386739 
L 430.673386 221.002515 
L 431.20063 217.208246 
L 431.727874 226.51759 
M 432.782362 232.386739 
L 433.309606 217.832835 
L 433.83685 232.386739 
M 435.418583 229.181651 
L 435.945827 272.231523 
M 440.691024 175.687978 
L 441.218268 232.386739 
L 441.745512 205.055537 
L 442.272756 232.386739 
L 442.8 232.386739 
L 443.327244 234.940301 
L 443.854488 195.883008 
L 444.381732 232.386739 
M 445.963465 204.528107 
L 446.490709 189.468583 
M 449.126929 232.386739 
L 449.654173 232.386739 
M 451.76315 228.549981 
L 452.290394 232.386739 
L 453.344882 232.386739 
L 453.872126 217.208246 
L 454.39937 93.529799 
M 456.508346 232.386739 
L 457.035591 211.603473 
M 462.308031 180.663442 
L 462.835276 228.129623 
L 463.36252 185.106377 
M 465.99874 213.827537 
L 466.525984 192.541955 
L 467.053228 188.725025 
M 474.434646 197.687375 
L 474.96189 232.386739 
M 478.652598 85.380405 
L 479.179843 232.386739 
M 481.288819 224.886504 
L 481.816063 220.109113 
M 485.506772 202.029753 
L 486.034016 232.386739 
L 486.56126 228.173245 
L 487.088504 205.427812 
L 487.615748 217.208246 
L 488.142992 221.889355 
L 488.670236 235.85101 
L 489.19748 217.208246 
M 491.833701 232.386739 
L 492.360945 225.687638 
L 492.888189 232.386739 
L 493.415433 208.561635 
L 493.942677 213.397512 
L 494.469921 220.45724 
L 494.997165 369.36 
L 495.524409 231.526315 
L 496.051654 230.051586 
L 496.578898 214.417426 
L 497.106142 214.93329 
L 497.633386 232.386739 
L 498.16063 232.386739 
L 498.687874 250.807144 
L 499.215118 232.386739 
L 499.742362 225.620914 
L 500.269606 206.829704 
L 500.79685 232.386739 
L 501.324094 228.473973 
M 502.378583 227.355161 
L 502.905827 236.440947 
L 503.433071 206.4911 
L 503.960315 232.386739 
L 504.487559 231.127648 
M 506.596535 232.386739 
L 507.12378 232.386739 
L 507.651024 99.438605 
M 508.705512 218.097211 
L 509.232756 208.153836 
L 509.76 232.386739 
L 510.287244 224.267851 
L 510.814488 221.698674 
L 511.341732 213.595794 
L 511.868976 223.692178 
L 512.39622 237.692437 
L 512.923465 214.821533 
L 513.450709 232.161035 
L 513.977953 234.126664 
L 514.505197 224.126308 
L 515.032441 223.654396 
L 515.559685 219.105145 
M 518.195906 232.386739 
L 518.72315 222.120065 
L 519.250394 238.515458 
M 520.832126 232.386739 
L 521.35937 235.720166 
L 521.886614 232.386739 
M 522.941102 224.878458 
L 523.468346 185.215432 
M 524.522835 232.386739 
L 526.104567 232.386739 
L 526.631811 228.19449 
L 527.159055 232.386739 
L 527.686299 227.28428 
M 528.740787 186.677055 
L 529.268031 198.854407 
L 529.795276 197.998961 
M 530.849764 230.897145 
L 531.377008 232.386739 
L 531.904252 176.927241 
L 532.431496 232.386739 
L 532.95874 182.403793 
L 533.485984 237.414755 
L 534.013228 232.386739 
M 535.067717 82.108751 
L 535.594961 232.386739 
L 536.122205 231.593611 
M 538.231181 232.386739 
L 538.758425 193.202896 
L 539.285669 232.386739 
M 540.340157 232.386739 
L 540.867402 232.386739 
M 544.030866 232.386739 
L 544.55811 176.72235 
M 548.248819 232.386739 
L 548.776063 232.386739 
M 554.048504 232.386739 
L 554.575748 228.214318 
L 555.102992 232.386739 
M 556.684724 232.386739 
L 557.211969 232.386739 
L 557.739213 218.597122 
L 558.266457 194.143791 
L 558.793701 267.198463 
L 559.320945 226.315342 
M 561.429921 232.386739 
L 561.957165 223.596647 
L 562.484409 200.535202 
L 563.011654 232.386739 
L 563.538898 238.078851 
L 564.066142 223.711898 
L 564.593386 199.742899 
M 565.647874 229.751332 
L 566.175118 237.72233 
L 566.702362 232.386739 
L 567.229606 232.386739 
L 567.75685 186.980143 
L 568.284094 101.580051 
M 569.338583 232.386739 
L 569.865827 233.717873 
L 570.393071 232.386739 
M 571.447559 212.830461 
L 571.974803 252.309131 
L 572.502047 131.401676 
M 573.556535 232.386739 
L 574.08378 223.532343 
L 574.611024 193.130493 
L 575.138268 217.22477 
L 575.665512 212.800435 
M 576.72 232.386739 
L 577.247244 203.89757 
L 577.774488 184.342991 
L 578.301732 232.386739 
M 579.883465 232.386739 
L 580.937953 232.386739 
L 581.465197 212.887679 
M 584.101417 197.518127 
L 584.628661 230.008521 
L 585.155906 227.327241 
L 585.68315 232.386739 
L 586.210394 226.315342 
L 586.737638 232.386739 
L 587.264882 232.386739 
L 587.792126 227.250067 
M 589.901102 217.429661 
L 590.428346 233.826267 
M 591.482835 213.137798 
L 592.010079 103.780982 
L 592.537323 232.386739 
M 594.119055 225.308069 
L 594.646299 123.054 
L 595.173543 232.386739 
L 595.700787 236.580927 
L 596.228031 232.386739 
L 596.755276 215.532762 
M 597.809764 224.692228 
L 598.337008 205.120475 
L 598.864252 235.448215 
M 601.500472 229.774373 
L 602.027717 232.386739 
M 603.082205 220.978192 
L 603.609449 232.386739 
M 609.409134 210.881065 
L 609.936378 217.832835 
M 612.045354 127.951568 
L 612.572598 232.386739 
M 615.736063 232.386739 
L 616.263307 232.386739 
L 616.790551 229.83551 
M 617.845039 232.386739 
L 618.899528 232.386739 
M 629.444409 188.332427 
L 629.971654 232.386739 
M 632.607874 164.911347 
L 633.662362 225.422081 
M 643.152756 232.386739 
L 643.68 218.967708 
L 644.207244 249.240716 
L 644.734488 232.386739 
L 645.261732 232.386739 
M 651.588661 232.386739 
L 652.115906 232.386739 
M 653.697638 210.555882 
L 654.224882 232.386739 
M 665.297008 232.386739 
L 665.824252 232.386739 
M 671.096693 232.386739 
L 671.623937 232.386739 
L 672.151181 217.271035 
L 672.678425 232.386739 
M 676.369134 232.386739 
L 676.896378 232.386739 
M 677.950866 138.638972 
L 678.47811 232.386739 
M 680.587087 232.386739 
L 683.223307 232.386739 
L 683.750551 220.745248 
L 684.277795 232.386739 
L 684.805039 234.747882 
L 685.332283 232.386739 
L 686.386772 232.386739 
M 687.44126 205.161618 
L 687.968504 229.415234 
L 688.495748 213.958403 
L 689.022992 217.713865 
L 689.550236 183.42098 
M 690.604724 225.109787 
L 691.131969 214.018608 
L 691.659213 232.386739 
L 692.186457 126.027414 
L 692.713701 148.559685 
L 693.240945 232.386739 
L 693.768189 198.639129 
L 694.295433 232.386739 
L 694.822677 142.657489 
L 695.349921 198.59664 
L 695.877165 202.029753 
L 696.404409 232.386739 
L 696.931654 159.537903 
M 697.986142 217.923478 
L 698.513386 206.665588 
L 699.04063 232.386739 
L 699.567874 201.405164 
L 700.095118 108.480268 
M 702.204094 242.142218 
L 702.731339 232.386739 
L 703.258583 241.837168 
L 703.785827 187.515505 
L 704.313071 217.429661 
M 706.422047 216.448826 
L 707.476535 227.429687 
M 710.112756 166.983395 
L 710.64 225.976563 
M 715.912441 219.015918 
L 716.439685 219.659862 
L 716.966929 232.386739 
L 717.494173 217.22477 
L 718.021417 232.386739 
L 718.548661 216.6134 
M 719.60315 232.386739 
L 720.130394 189.518154 
L 720.657638 232.386739 
L 721.184882 232.386739 
L 721.712126 182.816219 
M 723.293858 179.782503 
L 723.821102 232.386739 
M 725.930079 232.386739 
L 726.457323 188.645712 
M 734.365984 232.386739 
L 734.893228 247.059613 
L 735.420472 232.386739 
L 735.947717 262.743726 
M 737.002205 232.386739 
L 737.529449 212.766727 
M 748.601575 218.88373 
L 749.128819 232.386739 
L 749.656063 232.386739 
M 753.346772 187.515505 
L 753.874016 232.386739 
L 754.40126 191.448099 
L 754.928504 226.878904 
L 755.455748 220.64844 
L 755.982992 175.512829 
L 756.510236 232.386739 
M 758.091969 210.881065 
L 758.619213 232.386739 
L 759.146457 206.729038 
L 759.673701 261.732487 
L 760.200945 232.386739 
M 761.255433 220.771206 
L 761.782677 182.816219 
L 762.309921 225.733082 
L 762.837165 222.066157 
L 763.364409 173.576274 
L 763.891654 175.687978 
M 764.946142 218.594471 
L 765.473386 216.448826 
L 766.00063 217.573265 
L 766.527874 232.386739 
L 767.055118 192.541955 
M 768.109606 232.386739 
L 768.63685 216.968325 
L 769.164094 232.386739 
L 769.691339 234.195072 
L 770.218583 232.386739 
L 770.745827 232.386739 
M 773.382047 234.078746 
L 773.909291 232.386739 
L 774.436535 242.347935 
L 774.96378 232.386739 
M 776.018268 208.756472 
L 776.545512 227.074983 
L 777.072756 226.878904 
L 777.6 232.386739 
L 777.6 232.386739 
" clip-path="url(#p5b438ae641)" style="fill: none; stroke: #0000ff; stroke-width: 1.5; stroke-linecap: round"/>
   </g>
   <g id="patch_3">
    <path d="M 108 384.48 
L 108 51.84 
" style="fill: none; stroke: #ffffff; stroke-width: 0.8; stroke-linejoin: miter; stroke-linecap: square"/>
   </g>
   <g id="patch_4">
    <path d="M 777.6 384.48 
L 777.6 51.84 
" style="fill: none; stroke: #ffffff; stroke-width: 0.8; stroke-linejoin: miter; stroke-linecap: square"/>
   </g>
   <g id="patch_5">
    <path d="M 108 384.48 
L 777.6 384.48 
" style="fill: none; stroke: #ffffff; stroke-width: 0.8; stroke-linejoin: miter; stroke-linecap: square"/>
   </g>
   <g id="patch_6">
    <path d="M 108 51.84 
L 777.6 51.84 
" style="fill: none; stroke: #ffffff; stroke-width: 0.8; stroke-linejoin: miter; stroke-linecap: square"/>
   </g>
   <g id="text_18">
    <!-- VADER Sentiment Over Time -->
    <g style="fill: #262626" transform="translate(333.2535 45.84) scale(0.168 -0.168)">
     <defs>
      <path id="ArialMT-4f" d="M 309 2231 
Q 309 3372 921 4017 
Q 1534 4663 2503 4663 
Q 3138 4663 3647 4359 
Q 4156 4056 4423 3514 
Q 4691 2972 4691 2284 
Q 4691 1588 4409 1038 
Q 4128 488 3612 205 
Q 3097 -78 2500 -78 
Q 1853 -78 1343 234 
Q 834 547 571 1087 
Q 309 1628 309 2231 
z
M 934 2222 
Q 934 1394 1379 917 
Q 1825 441 2497 441 
Q 3181 441 3623 922 
Q 4066 1403 4066 2288 
Q 4066 2847 3877 3264 
Q 3688 3681 3323 3911 
Q 2959 4141 2506 4141 
Q 1863 4141 1398 3698 
Q 934 3256 934 2222 
z
" transform="scale(0.015625)"/>
      <path id="ArialMT-54" d="M 1659 0 
L 1659 4041 
L 150 4041 
L 150 4581 
L 3781 4581 
L 3781 4041 
L 2266 4041 
L 2266 0 
L 1659 0 
z
" transform="scale(0.015625)"/>
     </defs>
     <use xlink:href="#ArialMT-56"/>
     <use xlink:href="#ArialMT-41" x="59.324219"/>
     <use xlink:href="#ArialMT-44" x="126.023438"/>
     <use xlink:href="#ArialMT-45" x="198.240234"/>
     <use xlink:href="#ArialMT-52" x="264.939453"/>
     <use xlink:href="#ArialMT-20" x="337.15625"/>
     <use xlink:href="#ArialMT-53" x="364.939453"/>
     <use xlink:href="#ArialMT-65" x="431.638672"/>
     <use xlink:href="#ArialMT-6e" x="487.253906"/>
     <use xlink:href="#ArialMT-74" x="542.869141"/>
     <use xlink:href="#ArialMT-69" x="570.652344"/>
     <use xlink:href="#ArialMT-6d" x="592.869141"/>
     <use xlink:href="#ArialMT-65" x="676.169922"/>
     <use xlink:href="#ArialMT-6e" x="731.785156"/>
     <use xlink:href="#ArialMT-74" x="787.400391"/>
     <use xlink:href="#ArialMT-20" x="815.183594"/>
     <use xlink:href="#ArialMT-4f" x="842.966797"/>
     <use xlink:href="#ArialMT-76" x="920.75"/>
     <use xlink:href="#ArialMT-65" x="970.75"/>
     <use xlink:href="#ArialMT-72" x="1026.365234"/>
     <use xlink:href="#ArialMT-20" x="1059.666016"/>
     <use xlink:href="#ArialMT-54" x="1085.699219"/>
     <use xlink:href="#ArialMT-69" x="1143.033203"/>
     <use xlink:href="#ArialMT-6d" x="1165.25"/>
     <use xlink:href="#ArialMT-65" x="1248.550781"/>
    </g>
   </g>
  </g>
 </g>
 <defs>
  <clipPath id="p5b438ae641">
   <rect x="108" y="51.84" width="669.6" height="332.64"/>
  </clipPath>
 </defs>
</svg>
